<svg width="1920" height="1591" viewBox="0 0 1920 1591" fill="none" xmlns="http://www.w3.org/2000/svg">
<mask id="mask0_800_3632" style="mask-type:alpha" maskUnits="userSpaceOnUse" x="769" y="-213" width="1405" height="1415">
<ellipse cx="1471.29" cy="494.862" rx="701.248" ry="707.261" transform="rotate(-15 1471.29 494.862)" fill="#D9D9D9"/>
</mask>
<g mask="url(#mask0_800_3632)">
<path d="M-766.764 -496.001L2329.71 -1325.7L3023.57 1263.81L-72.9084 2093.51L-766.764 -496.001Z" fill="url(#paint0_linear_800_3632)"/>
</g>
<mask id="mask1_800_3632" style="mask-type:alpha" maskUnits="userSpaceOnUse" x="-445" y="-1009" width="3350" height="3374">
<ellipse cx="1230.2" cy="678.06" rx="1673.07" ry="1687.42" transform="rotate(-15 1230.2 678.06)" fill="#D9D9D9"/>
</mask>
<g mask="url(#mask1_800_3632)">
<path d="M-4109.44 -1685.98L3278.27 -3665.51L4933.7 2512.65L-2454.01 4492.18L-4109.44 -1685.98Z" fill="url(#paint1_linear_800_3632)"/>
</g>
<ellipse cx="280.342" cy="1583.29" rx="670.918" ry="576.286" transform="rotate(-180 280.342 1583.29)" fill="#F7F5ED" fill-opacity="0.3"/>
<ellipse opacity="0.5" cx="263.815" cy="284.798" rx="263.815" ry="284.798" transform="matrix(0.565811 0.824535 -0.892171 0.451698 856.461 -206.334)" fill="url(#paint2_linear_800_3632)"/>
<path d="M2051.46 602.995C1855.63 718.425 1603.5 653.593 1488.33 458.19C1373.15 262.786 1438.53 10.806 1634.37 -104.624C1830.2 -220.053 2082.32 -155.221 2197.5 40.1822C2312.68 235.586 2247.29 487.566 2051.46 602.995Z" fill="url(#paint3_linear_800_3632)"/>
<circle cx="630" cy="1573" r="926" transform="rotate(-180 630 1573)" fill="#53BD9A" fill-opacity="0.1"/>
<path d="M1895.37 1497.41C1818.41 1449.75 1799.88 1352.77 1853.95 1280.82C1908.02 1208.86 2014.23 1189.14 2091.19 1236.81C2168.15 1284.47 2186.68 1381.44 2132.61 1453.4C2078.54 1525.35 1972.33 1545.08 1895.37 1497.41Z" stroke="#F7F5ED" stroke-opacity="0.3" stroke-width="5"/>
<path d="M1841.51 1324.96C1864.45 1239.32 1953 1188.6 2039.3 1211.72C2125.6 1234.85 2176.92 1323.04 2153.97 1408.68C2131.02 1494.33 2042.48 1545.05 1956.18 1521.92C1869.88 1498.8 1818.56 1410.6 1841.51 1324.96Z" stroke="#F7F5ED" stroke-opacity="0.3" stroke-width="5"/>
<path d="M165.967 111.934C166.659 100.803 176.113 92.6667 187 93.6644C197.887 94.662 206.229 104.429 205.537 115.56C204.845 126.691 195.391 134.827 184.504 133.83C173.616 132.832 165.275 123.065 165.967 111.934Z" stroke="#F7F5ED" stroke-opacity="0.3" stroke-width="8"/>
<circle cx="1517.5" cy="177.5" r="37.5" transform="rotate(-180 1517.5 177.5)" fill="url(#paint4_linear_800_3632)" fill-opacity="0.3"/>
<circle cx="531.5" cy="643.5" r="138.5" transform="rotate(-180 531.5 643.5)" fill="url(#paint5_linear_800_3632)" fill-opacity="0.3"/>
<circle cx="1342.92" cy="1398.92" r="124.992" transform="rotate(75 1342.92 1398.92)" fill="url(#paint6_linear_800_3632)" fill-opacity="0.3"/>
<mask id="mask2_800_3632" style="mask-type:alpha" maskUnits="userSpaceOnUse" x="1518" y="929" width="110" height="105">
<mask id="mask3_800_3632" style="mask-type:alpha" maskUnits="userSpaceOnUse" x="1513" y="915" width="127" height="123">
<ellipse cx="3.85739" cy="3.71513" rx="3.85739" ry="3.71513" transform="matrix(-1 -8.74228e-08 -8.74228e-08 1 1556.86 1004.57)" fill="#53BD9A"/>
<ellipse cx="3.85739" cy="3.71513" rx="3.85739" ry="3.71513" transform="matrix(-1 -8.74228e-08 -8.74228e-08 1 1598 1004.57)" fill="#53BD9A"/>
<ellipse cx="3.85739" cy="3.71513" rx="3.85739" ry="3.71513" transform="matrix(-1 -8.74228e-08 -8.74228e-08 1 1639.15 1004.57)" fill="#53BD9A"/>
<ellipse cx="3.85739" cy="3.71513" rx="3.85739" ry="3.71513" transform="matrix(-1 -8.74228e-08 -8.74228e-08 1 1543.14 1004.57)" fill="#53BD9A"/>
<ellipse cx="3.85739" cy="3.71513" rx="3.85739" ry="3.71513" transform="matrix(-1 -8.74228e-08 -8.74228e-08 1 1584.29 1004.57)" fill="#53BD9A"/>
<ellipse cx="3.85739" cy="3.71513" rx="3.85739" ry="3.71513" transform="matrix(-1 -8.74228e-08 -8.74228e-08 1 1625.43 1004.57)" fill="#53BD9A"/>
<ellipse cx="3.85739" cy="3.71513" rx="3.85739" ry="3.71513" transform="matrix(-1 -8.74228e-08 -8.74228e-08 1 1529.43 1004.57)" fill="#53BD9A"/>
<ellipse cx="3.85739" cy="3.71513" rx="3.85739" ry="3.71513" transform="matrix(-1 -8.74228e-08 -8.74228e-08 1 1570.57 1004.57)" fill="#53BD9A"/>
<ellipse cx="3.85739" cy="3.71513" rx="3.85739" ry="3.71513" transform="matrix(-1 -8.74228e-08 -8.74228e-08 1 1611.72 1004.57)" fill="#53BD9A"/>
<ellipse cx="3.85739" cy="3.71513" rx="3.85739" ry="3.71513" transform="matrix(-1 -8.74228e-08 -8.74228e-08 1 1556.86 1030.17)" fill="#53BD9A"/>
<ellipse cx="3.85739" cy="3.71513" rx="3.85739" ry="3.71513" transform="matrix(-1 -8.74228e-08 -8.74228e-08 1 1598 1030.17)" fill="#53BD9A"/>
<ellipse cx="3.85739" cy="3.71513" rx="3.85739" ry="3.71513" transform="matrix(-1 -8.74228e-08 -8.74228e-08 1 1639.15 1030.17)" fill="#53BD9A"/>
<ellipse cx="3.85739" cy="3.71513" rx="3.85739" ry="3.71513" transform="matrix(-1 -8.74228e-08 -8.74228e-08 1 1543.14 1030.17)" fill="#53BD9A"/>
<ellipse cx="3.85739" cy="3.71513" rx="3.85739" ry="3.71513" transform="matrix(-1 -8.74228e-08 -8.74228e-08 1 1584.29 1030.17)" fill="#53BD9A"/>
<ellipse cx="3.85739" cy="3.71513" rx="3.85739" ry="3.71513" transform="matrix(-1 -8.74228e-08 -8.74228e-08 1 1625.43 1030.17)" fill="#53BD9A"/>
<ellipse cx="3.85739" cy="3.71513" rx="3.85739" ry="3.71513" transform="matrix(-1 -8.74228e-08 -8.74228e-08 1 1529.43 1030.17)" fill="#53BD9A"/>
<ellipse cx="3.85739" cy="3.71513" rx="3.85739" ry="3.71513" transform="matrix(-1 -8.74228e-08 -8.74228e-08 1 1570.57 1030.17)" fill="#53BD9A"/>
<ellipse cx="3.85739" cy="3.71513" rx="3.85739" ry="3.71513" transform="matrix(-1 -8.74228e-08 -8.74228e-08 1 1611.72 1030.17)" fill="#53BD9A"/>
<ellipse cx="3.85739" cy="3.71513" rx="3.85739" ry="3.71513" transform="matrix(-1 -8.74228e-08 -8.74228e-08 1 1556.86 978.982)" fill="#53BD9A"/>
<ellipse cx="3.85739" cy="3.71513" rx="3.85739" ry="3.71513" transform="matrix(-1 -8.74228e-08 -8.74228e-08 1 1598 978.982)" fill="#53BD9A"/>
<ellipse cx="3.85739" cy="3.71513" rx="3.85739" ry="3.71513" transform="matrix(-1 -8.74228e-08 -8.74228e-08 1 1639.15 978.982)" fill="#53BD9A"/>
<ellipse cx="3.85739" cy="3.71513" rx="3.85739" ry="3.71513" transform="matrix(-1 -8.74228e-08 -8.74228e-08 1 1543.14 978.982)" fill="#53BD9A"/>
<ellipse cx="3.85739" cy="3.71513" rx="3.85739" ry="3.71513" transform="matrix(-1 -8.74228e-08 -8.74228e-08 1 1584.29 978.982)" fill="#53BD9A"/>
<ellipse cx="3.85739" cy="3.71513" rx="3.85739" ry="3.71513" transform="matrix(-1 -8.74228e-08 -8.74228e-08 1 1625.43 978.982)" fill="#53BD9A"/>
<ellipse cx="3.85739" cy="3.71513" rx="3.85739" ry="3.71513" transform="matrix(-1 -8.74228e-08 -8.74228e-08 1 1529.43 978.982)" fill="#53BD9A"/>
<ellipse cx="3.85739" cy="3.71513" rx="3.85739" ry="3.71513" transform="matrix(-1 -8.74228e-08 -8.74228e-08 1 1570.57 978.982)" fill="#53BD9A"/>
<ellipse cx="3.85739" cy="3.71513" rx="3.85739" ry="3.71513" transform="matrix(-1 -8.74228e-08 -8.74228e-08 1 1611.72 978.982)" fill="#53BD9A"/>
<ellipse cx="3.85739" cy="3.71513" rx="3.85739" ry="3.71513" transform="matrix(-1 -8.74228e-08 -8.74228e-08 1 1556.86 953.389)" fill="#53BD9A"/>
<ellipse cx="3.85739" cy="3.71513" rx="3.85739" ry="3.71513" transform="matrix(-1 -8.74228e-08 -8.74228e-08 1 1598 953.389)" fill="#53BD9A"/>
<ellipse cx="3.85739" cy="3.71513" rx="3.85739" ry="3.71513" transform="matrix(-1 -8.74228e-08 -8.74228e-08 1 1639.15 953.389)" fill="#53BD9A"/>
<ellipse cx="3.85739" cy="3.71513" rx="3.85739" ry="3.71513" transform="matrix(-1 -8.74228e-08 -8.74228e-08 1 1543.14 953.389)" fill="#53BD9A"/>
<ellipse cx="3.85739" cy="3.71513" rx="3.85739" ry="3.71513" transform="matrix(-1 -8.74228e-08 -8.74228e-08 1 1584.29 953.389)" fill="#53BD9A"/>
<ellipse cx="3.85739" cy="3.71513" rx="3.85739" ry="3.71513" transform="matrix(-1 -8.74228e-08 -8.74228e-08 1 1625.43 953.389)" fill="#53BD9A"/>
<ellipse cx="3.85739" cy="3.71513" rx="3.85739" ry="3.71513" transform="matrix(-1 -8.74228e-08 -8.74228e-08 1 1529.43 953.389)" fill="#53BD9A"/>
<ellipse cx="3.85739" cy="3.71513" rx="3.85739" ry="3.71513" transform="matrix(-1 -8.74228e-08 -8.74228e-08 1 1570.57 953.389)" fill="#53BD9A"/>
<ellipse cx="3.85739" cy="3.71513" rx="3.85739" ry="3.71513" transform="matrix(-1 -8.74228e-08 -8.74228e-08 1 1611.72 953.389)" fill="#53BD9A"/>
<ellipse cx="3.85739" cy="3.71513" rx="3.85739" ry="3.71513" transform="matrix(-1 -8.74228e-08 -8.74228e-08 1 1556.86 927.796)" fill="#53BD9A"/>
<ellipse cx="3.85739" cy="3.71513" rx="3.85739" ry="3.71513" transform="matrix(-1 -8.74228e-08 -8.74228e-08 1 1598 927.796)" fill="#53BD9A"/>
<ellipse cx="3.85739" cy="3.71513" rx="3.85739" ry="3.71513" transform="matrix(-1 -8.74228e-08 -8.74228e-08 1 1639.15 927.796)" fill="#53BD9A"/>
<ellipse cx="3.85739" cy="3.71513" rx="3.85739" ry="3.71513" transform="matrix(-1 -8.74228e-08 -8.74228e-08 1 1543.14 927.796)" fill="#53BD9A"/>
<ellipse cx="3.85739" cy="3.71513" rx="3.85739" ry="3.71513" transform="matrix(-1 -8.74228e-08 -8.74228e-08 1 1584.29 927.796)" fill="#53BD9A"/>
<ellipse cx="3.85739" cy="3.71513" rx="3.85739" ry="3.71513" transform="matrix(-1 -8.74228e-08 -8.74228e-08 1 1625.43 927.796)" fill="#53BD9A"/>
<ellipse cx="3.85739" cy="3.71513" rx="3.85739" ry="3.71513" transform="matrix(-1 -8.74228e-08 -8.74228e-08 1 1529.43 927.796)" fill="#53BD9A"/>
<ellipse cx="3.85739" cy="3.71513" rx="3.85739" ry="3.71513" transform="matrix(-1 -8.74228e-08 -8.74228e-08 1 1570.57 927.796)" fill="#53BD9A"/>
<ellipse cx="3.85739" cy="3.71513" rx="3.85739" ry="3.71513" transform="matrix(-1 -8.74228e-08 -8.74228e-08 1 1611.72 927.796)" fill="#53BD9A"/>
<ellipse cx="3.85739" cy="3.71513" rx="3.85739" ry="3.71513" transform="matrix(-1 -8.74228e-08 -8.74228e-08 1 1549.14 991.778)" fill="#53BD9A"/>
<ellipse cx="3.85739" cy="3.71513" rx="3.85739" ry="3.71513" transform="matrix(-1 -8.74228e-08 -8.74228e-08 1 1590.29 991.778)" fill="#53BD9A"/>
<ellipse cx="3.85739" cy="3.71513" rx="3.85739" ry="3.71513" transform="matrix(-1 -8.74228e-08 -8.74228e-08 1 1631.43 991.778)" fill="#53BD9A"/>
<ellipse cx="3.85739" cy="3.71513" rx="3.85739" ry="3.71513" transform="matrix(-1 -8.74228e-08 -8.74228e-08 1 1535.43 991.778)" fill="#53BD9A"/>
<ellipse cx="3.85739" cy="3.71513" rx="3.85739" ry="3.71513" transform="matrix(-1 -8.74228e-08 -8.74228e-08 1 1576.57 991.778)" fill="#53BD9A"/>
<ellipse cx="3.85739" cy="3.71513" rx="3.85739" ry="3.71513" transform="matrix(-1 -8.74228e-08 -8.74228e-08 1 1617.72 991.778)" fill="#53BD9A"/>
<ellipse cx="3.85739" cy="3.71513" rx="3.85739" ry="3.71513" transform="matrix(-1 -8.74228e-08 -8.74228e-08 1 1521.71 991.778)" fill="#53BD9A"/>
<ellipse cx="3.85739" cy="3.71513" rx="3.85739" ry="3.71513" transform="matrix(-1 -8.74228e-08 -8.74228e-08 1 1562.86 991.778)" fill="#53BD9A"/>
<ellipse cx="3.85739" cy="3.71513" rx="3.85739" ry="3.71513" transform="matrix(-1 -8.74228e-08 -8.74228e-08 1 1604 991.778)" fill="#53BD9A"/>
<ellipse cx="3.85739" cy="3.71513" rx="3.85739" ry="3.71513" transform="matrix(-1 -8.74228e-08 -8.74228e-08 1 1549.15 1017.37)" fill="#53BD9A"/>
<ellipse cx="3.85739" cy="3.71513" rx="3.85739" ry="3.71513" transform="matrix(-1 -8.74228e-08 -8.74228e-08 1 1590.29 1017.37)" fill="#53BD9A"/>
<ellipse cx="3.85739" cy="3.71513" rx="3.85739" ry="3.71513" transform="matrix(-1 -8.74228e-08 -8.74228e-08 1 1631.43 1017.37)" fill="#53BD9A"/>
<ellipse cx="3.85739" cy="3.71513" rx="3.85739" ry="3.71513" transform="matrix(-1 -8.74228e-08 -8.74228e-08 1 1535.43 1017.37)" fill="#53BD9A"/>
<ellipse cx="3.85739" cy="3.71513" rx="3.85739" ry="3.71513" transform="matrix(-1 -8.74228e-08 -8.74228e-08 1 1576.57 1017.37)" fill="#53BD9A"/>
<ellipse cx="3.85739" cy="3.71513" rx="3.85739" ry="3.71513" transform="matrix(-1 -8.74228e-08 -8.74228e-08 1 1617.72 1017.37)" fill="#53BD9A"/>
<ellipse cx="3.85739" cy="3.71513" rx="3.85739" ry="3.71513" transform="matrix(-1 -8.74228e-08 -8.74228e-08 1 1521.71 1017.37)" fill="#53BD9A"/>
<ellipse cx="3.85739" cy="3.71513" rx="3.85739" ry="3.71513" transform="matrix(-1 -8.74228e-08 -8.74228e-08 1 1562.86 1017.37)" fill="#53BD9A"/>
<ellipse cx="3.85739" cy="3.71513" rx="3.85739" ry="3.71513" transform="matrix(-1 -8.74228e-08 -8.74228e-08 1 1604.01 1017.37)" fill="#53BD9A"/>
<ellipse cx="3.85739" cy="3.71513" rx="3.85739" ry="3.71513" transform="matrix(-1 -8.74228e-08 -8.74228e-08 1 1549.15 966.185)" fill="#53BD9A"/>
<ellipse cx="3.85739" cy="3.71513" rx="3.85739" ry="3.71513" transform="matrix(-1 -8.74228e-08 -8.74228e-08 1 1590.29 966.185)" fill="#53BD9A"/>
<ellipse cx="3.85739" cy="3.71513" rx="3.85739" ry="3.71513" transform="matrix(-1 -8.74228e-08 -8.74228e-08 1 1631.43 966.185)" fill="#53BD9A"/>
<ellipse cx="3.85739" cy="3.71513" rx="3.85739" ry="3.71513" transform="matrix(-1 -8.74228e-08 -8.74228e-08 1 1535.43 966.185)" fill="#53BD9A"/>
<ellipse cx="3.85739" cy="3.71513" rx="3.85739" ry="3.71513" transform="matrix(-1 -8.74228e-08 -8.74228e-08 1 1576.58 966.185)" fill="#53BD9A"/>
<ellipse cx="3.85739" cy="3.71513" rx="3.85739" ry="3.71513" transform="matrix(-1 -8.74228e-08 -8.74228e-08 1 1617.72 966.185)" fill="#53BD9A"/>
<ellipse cx="3.85739" cy="3.71513" rx="3.85739" ry="3.71513" transform="matrix(-1 -8.74228e-08 -8.74228e-08 1 1521.71 966.185)" fill="#53BD9A"/>
<ellipse cx="3.85739" cy="3.71513" rx="3.85739" ry="3.71513" transform="matrix(-1 -8.74228e-08 -8.74228e-08 1 1562.86 966.185)" fill="#53BD9A"/>
<ellipse cx="3.85739" cy="3.71513" rx="3.85739" ry="3.71513" transform="matrix(-1 -8.74228e-08 -8.74228e-08 1 1604 966.185)" fill="#53BD9A"/>
<ellipse cx="3.85739" cy="3.71513" rx="3.85739" ry="3.71513" transform="matrix(-1 -8.74228e-08 -8.74228e-08 1 1549.15 940.592)" fill="#53BD9A"/>
<ellipse cx="3.85739" cy="3.71513" rx="3.85739" ry="3.71513" transform="matrix(-1 -8.74228e-08 -8.74228e-08 1 1590.29 940.592)" fill="#53BD9A"/>
<ellipse cx="3.85739" cy="3.71513" rx="3.85739" ry="3.71513" transform="matrix(-1 -8.74228e-08 -8.74228e-08 1 1631.43 940.592)" fill="#53BD9A"/>
<ellipse cx="3.85739" cy="3.71513" rx="3.85739" ry="3.71513" transform="matrix(-1 -8.74228e-08 -8.74228e-08 1 1535.43 940.592)" fill="#53BD9A"/>
<ellipse cx="3.85739" cy="3.71513" rx="3.85739" ry="3.71513" transform="matrix(-1 -8.74228e-08 -8.74228e-08 1 1576.57 940.592)" fill="#53BD9A"/>
<ellipse cx="3.85739" cy="3.71513" rx="3.85739" ry="3.71513" transform="matrix(-1 -8.74228e-08 -8.74228e-08 1 1617.72 940.592)" fill="#53BD9A"/>
<ellipse cx="3.85739" cy="3.71513" rx="3.85739" ry="3.71513" transform="matrix(-1 -8.74228e-08 -8.74228e-08 1 1521.72 940.592)" fill="#53BD9A"/>
<ellipse cx="3.85739" cy="3.71513" rx="3.85739" ry="3.71513" transform="matrix(-1 -8.74228e-08 -8.74228e-08 1 1562.86 940.592)" fill="#53BD9A"/>
<ellipse cx="3.85739" cy="3.71513" rx="3.85739" ry="3.71513" transform="matrix(-1 -8.74228e-08 -8.74228e-08 1 1604 940.592)" fill="#53BD9A"/>
<ellipse cx="3.85739" cy="3.71513" rx="3.85739" ry="3.71513" transform="matrix(-1 -8.74228e-08 -8.74228e-08 1 1549.15 915)" fill="#53BD9A"/>
<ellipse cx="3.85739" cy="3.71513" rx="3.85739" ry="3.71513" transform="matrix(-1 -8.74228e-08 -8.74228e-08 1 1590.29 915)" fill="#53BD9A"/>
<ellipse cx="3.85739" cy="3.71513" rx="3.85739" ry="3.71513" transform="matrix(-1 -8.74228e-08 -8.74228e-08 1 1631.43 915)" fill="#53BD9A"/>
<ellipse cx="3.85739" cy="3.71513" rx="3.85739" ry="3.71513" transform="matrix(-1 -8.74228e-08 -8.74228e-08 1 1535.43 915)" fill="#53BD9A"/>
<ellipse cx="3.85739" cy="3.71513" rx="3.85739" ry="3.71513" transform="matrix(-1 -8.74228e-08 -8.74228e-08 1 1576.58 915)" fill="#53BD9A"/>
<ellipse cx="3.85739" cy="3.71513" rx="3.85739" ry="3.71513" transform="matrix(-1 -8.74228e-08 -8.74228e-08 1 1617.72 915)" fill="#53BD9A"/>
<ellipse cx="3.85739" cy="3.71513" rx="3.85739" ry="3.71513" transform="matrix(-1 -8.74228e-08 -8.74228e-08 1 1521.72 915)" fill="#53BD9A"/>
<ellipse cx="3.85739" cy="3.71513" rx="3.85739" ry="3.71513" transform="matrix(-1 -8.74228e-08 -8.74228e-08 1 1562.86 915)" fill="#53BD9A"/>
<ellipse cx="3.85739" cy="3.71513" rx="3.85739" ry="3.71513" transform="matrix(-1 -8.74228e-08 -8.74228e-08 1 1604 915)" fill="#53BD9A"/>
</mask>
<g mask="url(#mask3_800_3632)">
<ellipse cx="54.4312" cy="52.4238" rx="54.4312" ry="52.4238" transform="matrix(-1 -8.74228e-08 -8.74228e-08 1 1627.58 929.034)" fill="#53BD9A"/>
</g>
</mask>
<g mask="url(#mask2_800_3632)">
<rect x="1792.09" y="1014.07" width="353.65" height="290.13" transform="rotate(120 1792.09 1014.07)" fill="url(#paint7_linear_800_3632)"/>
</g>
<defs>
<linearGradient id="paint0_linear_800_3632" x1="781.473" y1="-910.849" x2="1475.33" y2="1678.66" gradientUnits="userSpaceOnUse">
<stop stop-color="#53BD9A"/>
<stop offset="1" stop-color="#DDF2EB"/>
</linearGradient>
<linearGradient id="paint1_linear_800_3632" x1="-415.586" y1="-2675.75" x2="1239.85" y2="3502.42" gradientUnits="userSpaceOnUse">
<stop stop-color="#53BD9A"/>
<stop offset="1" stop-color="#DDF2EB"/>
</linearGradient>
<linearGradient id="paint2_linear_800_3632" x1="263.815" y1="0" x2="263.815" y2="569.596" gradientUnits="userSpaceOnUse">
<stop stop-color="#53BD9A"/>
<stop offset="1" stop-color="#53BD9A" stop-opacity="0"/>
</linearGradient>
<linearGradient id="paint3_linear_800_3632" x1="2197.5" y1="40.1822" x2="1488.33" y2="458.19" gradientUnits="userSpaceOnUse">
<stop stop-color="#53BD9A"/>
<stop offset="1" stop-color="#53BD9A" stop-opacity="0"/>
</linearGradient>
<linearGradient id="paint4_linear_800_3632" x1="1517.5" y1="140" x2="1560.07" y2="195.333" gradientUnits="userSpaceOnUse">
<stop stop-color="#F7F5ED"/>
<stop offset="0.541667" stop-color="#F7F5ED" stop-opacity="0.458333"/>
<stop offset="1" stop-color="#F7F5ED" stop-opacity="0"/>
</linearGradient>
<linearGradient id="paint5_linear_800_3632" x1="531.5" y1="505" x2="688.714" y2="709.362" gradientUnits="userSpaceOnUse">
<stop stop-color="#F7F5ED"/>
<stop offset="0.541667" stop-color="#F7F5ED" stop-opacity="0.458333"/>
<stop offset="1" stop-color="#F7F5ED" stop-opacity="0"/>
</linearGradient>
<linearGradient id="paint6_linear_800_3632" x1="1342.92" y1="1273.93" x2="1484.8" y2="1458.36" gradientUnits="userSpaceOnUse">
<stop stop-color="#F7F5ED"/>
<stop offset="0.541667" stop-color="#F7F5ED" stop-opacity="0.458333"/>
<stop offset="1" stop-color="#F7F5ED" stop-opacity="0"/>
</linearGradient>
<linearGradient id="paint7_linear_800_3632" x1="1968.91" y1="1014.07" x2="1968.91" y2="1304.2" gradientUnits="userSpaceOnUse">
<stop stop-color="#53BD9A"/>
<stop offset="1" stop-color="#53BD9A" stop-opacity="0"/>
</linearGradient>
</defs>
</svg>
