<svg width="1920" height="1591" viewBox="0 0 1920 1591" fill="none" xmlns="http://www.w3.org/2000/svg">
<g opacity="0.9">
<mask id="mask0_800_3630" style="mask-type:alpha" maskUnits="userSpaceOnUse" x="0" y="0" width="1920" height="1591">
<path d="M1920 1591L-0.00012207 1591L1.70193e-05 -4.57814e-05L1920 0.00012207L1920 1591Z" fill="black"/>
</mask>
<g mask="url(#mask0_800_3630)">
<mask id="mask1_800_3630" style="mask-type:alpha" maskUnits="userSpaceOnUse" x="-254" y="389" width="1405" height="1415">
<ellipse cx="448.714" cy="1096.14" rx="701.248" ry="707.261" transform="rotate(165 448.714 1096.14)" fill="#D9D9D9"/>
</mask>
<g mask="url(#mask1_800_3630)">
<path d="M2686.76 2087L-409.71 2916.7L-1103.57 327.191L1992.91 -502.507L2686.76 2087Z" fill="url(#paint0_linear_800_3630)"/>
</g>
<mask id="mask2_800_3630" style="mask-type:alpha" maskUnits="userSpaceOnUse" x="-985" y="-774" width="3350" height="3374">
<ellipse cx="689.797" cy="912.94" rx="1673.07" ry="1687.42" transform="rotate(165 689.797 912.94)" fill="#D9D9D9"/>
</mask>
<g mask="url(#mask2_800_3630)">
<path d="M6029.44 3276.98L-1358.27 5256.51L-3013.7 -921.65L4374.01 -2901.18L6029.44 3276.98Z" fill="url(#paint1_linear_800_3630)"/>
</g>
<circle cx="1734.29" cy="255.286" r="576.286" fill="#F7F5ED" fill-opacity="0.3"/>
<ellipse opacity="0.5" cx="1329.47" cy="1451.17" rx="252.5" ry="253.341" transform="rotate(-120.516 1329.47 1451.17)" fill="url(#paint2_linear_800_3630)"/>
<path d="M-131.458 988.004C64.3751 872.575 316.498 937.407 431.675 1132.81C546.851 1328.21 481.466 1580.19 285.633 1695.62C89.8 1811.05 -162.323 1746.22 -277.5 1550.82C-392.676 1355.41 -327.291 1103.43 -131.458 988.004Z" fill="url(#paint3_linear_800_3630)"/>
<circle cx="1290" cy="17.9999" r="926" fill="#53BD9A" fill-opacity="0.1"/>
<path d="M24.6331 93.5875C101.592 141.251 120.116 238.227 66.0474 310.181C11.9791 382.136 -94.2338 401.858 -171.193 354.194C-248.152 306.531 -266.675 209.555 -212.607 137.601C-158.539 65.6462 -52.3261 45.924 24.6331 93.5875Z" stroke="#F7F5ED" stroke-opacity="0.3" stroke-width="5"/>
<path d="M78.4934 266.039C55.5455 351.681 -32.9958 402.4 -119.296 379.276C-205.596 356.152 -256.915 267.958 -233.967 182.315C-211.019 96.6721 -122.478 45.9532 -36.1781 69.0772C50.1218 92.2012 101.441 180.396 78.4934 266.039Z" stroke="#F7F5ED" stroke-opacity="0.3" stroke-width="5"/>
<path d="M1754.03 1479.07C1753.34 1490.2 1743.89 1498.33 1733 1497.34C1722.11 1496.34 1713.77 1486.57 1714.46 1475.44C1715.16 1464.31 1724.61 1456.17 1735.5 1457.17C1746.38 1458.17 1754.72 1467.93 1754.03 1479.07Z" stroke="#F7F5ED" stroke-opacity="0.3" stroke-width="8"/>
<mask id="mask3_800_3630" style="mask-type:alpha" maskUnits="userSpaceOnUse" x="247" y="583" width="126" height="124">
<ellipse cx="3.85739" cy="3.71513" rx="3.85739" ry="3.71513" transform="matrix(1 0 0 -1 329.29 617.023)" fill="#53BD9A"/>
<ellipse cx="3.85739" cy="3.71513" rx="3.85739" ry="3.71513" transform="matrix(1 0 0 -1 288.145 617.023)" fill="#53BD9A"/>
<ellipse cx="3.85739" cy="3.71513" rx="3.85739" ry="3.71513" transform="matrix(1 0 0 -1 247 617.023)" fill="#53BD9A"/>
<ellipse cx="3.85739" cy="3.71513" rx="3.85739" ry="3.71513" transform="matrix(1 0 0 -1 343.005 617.023)" fill="#53BD9A"/>
<ellipse cx="3.85739" cy="3.71513" rx="3.85739" ry="3.71513" transform="matrix(1 0 0 -1 301.859 617.023)" fill="#53BD9A"/>
<ellipse cx="3.85739" cy="3.71513" rx="3.85739" ry="3.71513" transform="matrix(1 0 0 -1 260.715 617.023)" fill="#53BD9A"/>
<ellipse cx="3.85739" cy="3.71513" rx="3.85739" ry="3.71513" transform="matrix(1 0 0 -1 356.72 617.023)" fill="#53BD9A"/>
<ellipse cx="3.85739" cy="3.71513" rx="3.85739" ry="3.71513" transform="matrix(1 0 0 -1 315.575 617.023)" fill="#53BD9A"/>
<ellipse cx="3.85739" cy="3.71513" rx="3.85739" ry="3.71513" transform="matrix(1 0 0 -1 274.43 617.023)" fill="#53BD9A"/>
<ellipse cx="3.85739" cy="3.71513" rx="3.85739" ry="3.71513" transform="matrix(1 0 0 -1 329.29 591.43)" fill="#53BD9A"/>
<ellipse cx="3.85739" cy="3.71513" rx="3.85739" ry="3.71513" transform="matrix(1 0 0 -1 288.145 591.43)" fill="#53BD9A"/>
<ellipse cx="3.85739" cy="3.71513" rx="3.85739" ry="3.71513" transform="matrix(1 0 0 -1 247 591.43)" fill="#53BD9A"/>
<ellipse cx="3.85739" cy="3.71513" rx="3.85739" ry="3.71513" transform="matrix(1 0 0 -1 343.005 591.43)" fill="#53BD9A"/>
<ellipse cx="3.85739" cy="3.71513" rx="3.85739" ry="3.71513" transform="matrix(1 0 0 -1 301.859 591.43)" fill="#53BD9A"/>
<ellipse cx="3.85739" cy="3.71513" rx="3.85739" ry="3.71513" transform="matrix(1 0 0 -1 260.715 591.43)" fill="#53BD9A"/>
<ellipse cx="3.85739" cy="3.71513" rx="3.85739" ry="3.71513" transform="matrix(1 0 0 -1 356.72 591.43)" fill="#53BD9A"/>
<ellipse cx="3.85739" cy="3.71513" rx="3.85739" ry="3.71513" transform="matrix(1 0 0 -1 315.575 591.43)" fill="#53BD9A"/>
<ellipse cx="3.85739" cy="3.71513" rx="3.85739" ry="3.71513" transform="matrix(1 0 0 -1 274.43 591.43)" fill="#53BD9A"/>
<ellipse cx="3.85739" cy="3.71513" rx="3.85739" ry="3.71513" transform="matrix(1 0 0 -1 329.29 642.615)" fill="#53BD9A"/>
<ellipse cx="3.85739" cy="3.71513" rx="3.85739" ry="3.71513" transform="matrix(1 0 0 -1 288.145 642.615)" fill="#53BD9A"/>
<ellipse cx="3.85739" cy="3.71513" rx="3.85739" ry="3.71513" transform="matrix(1 0 0 -1 247 642.615)" fill="#53BD9A"/>
<ellipse cx="3.85739" cy="3.71513" rx="3.85739" ry="3.71513" transform="matrix(1 0 0 -1 343.005 642.615)" fill="#53BD9A"/>
<ellipse cx="3.85739" cy="3.71513" rx="3.85739" ry="3.71513" transform="matrix(1 0 0 -1 301.86 642.615)" fill="#53BD9A"/>
<ellipse cx="3.85739" cy="3.71513" rx="3.85739" ry="3.71513" transform="matrix(1 0 0 -1 260.715 642.615)" fill="#53BD9A"/>
<ellipse cx="3.85739" cy="3.71513" rx="3.85739" ry="3.71513" transform="matrix(1 0 0 -1 356.72 642.615)" fill="#53BD9A"/>
<ellipse cx="3.85739" cy="3.71513" rx="3.85739" ry="3.71513" transform="matrix(1 0 0 -1 315.575 642.615)" fill="#53BD9A"/>
<ellipse cx="3.85739" cy="3.71513" rx="3.85739" ry="3.71513" transform="matrix(1 0 0 -1 274.43 642.615)" fill="#53BD9A"/>
<ellipse cx="3.85739" cy="3.71513" rx="3.85739" ry="3.71513" transform="matrix(1 0 0 -1 329.29 668.208)" fill="#53BD9A"/>
<ellipse cx="3.85739" cy="3.71513" rx="3.85739" ry="3.71513" transform="matrix(1 0 0 -1 288.145 668.208)" fill="#53BD9A"/>
<ellipse cx="3.85739" cy="3.71513" rx="3.85739" ry="3.71513" transform="matrix(1 0 0 -1 247 668.208)" fill="#53BD9A"/>
<ellipse cx="3.85739" cy="3.71513" rx="3.85739" ry="3.71513" transform="matrix(1 0 0 -1 343.005 668.208)" fill="#53BD9A"/>
<ellipse cx="3.85739" cy="3.71513" rx="3.85739" ry="3.71513" transform="matrix(1 0 0 -1 301.859 668.208)" fill="#53BD9A"/>
<ellipse cx="3.85739" cy="3.71513" rx="3.85739" ry="3.71513" transform="matrix(1 0 0 -1 260.715 668.208)" fill="#53BD9A"/>
<ellipse cx="3.85739" cy="3.71513" rx="3.85739" ry="3.71513" transform="matrix(1 0 0 -1 356.72 668.208)" fill="#53BD9A"/>
<ellipse cx="3.85739" cy="3.71513" rx="3.85739" ry="3.71513" transform="matrix(1 0 0 -1 315.575 668.208)" fill="#53BD9A"/>
<ellipse cx="3.85739" cy="3.71513" rx="3.85739" ry="3.71513" transform="matrix(1 0 0 -1 274.43 668.208)" fill="#53BD9A"/>
<ellipse cx="3.85739" cy="3.71513" rx="3.85739" ry="3.71513" transform="matrix(1 0 0 -1 329.29 693.801)" fill="#53BD9A"/>
<ellipse cx="3.85739" cy="3.71513" rx="3.85739" ry="3.71513" transform="matrix(1 0 0 -1 288.145 693.801)" fill="#53BD9A"/>
<ellipse cx="3.85739" cy="3.71513" rx="3.85739" ry="3.71513" transform="matrix(1 0 0 -1 247 693.801)" fill="#53BD9A"/>
<ellipse cx="3.85739" cy="3.71513" rx="3.85739" ry="3.71513" transform="matrix(1 0 0 -1 343.005 693.801)" fill="#53BD9A"/>
<ellipse cx="3.85739" cy="3.71513" rx="3.85739" ry="3.71513" transform="matrix(1 0 0 -1 301.859 693.801)" fill="#53BD9A"/>
<ellipse cx="3.85739" cy="3.71513" rx="3.85739" ry="3.71513" transform="matrix(1 0 0 -1 260.715 693.801)" fill="#53BD9A"/>
<ellipse cx="3.85739" cy="3.71513" rx="3.85739" ry="3.71513" transform="matrix(1 0 0 -1 356.72 693.801)" fill="#53BD9A"/>
<ellipse cx="3.85739" cy="3.71513" rx="3.85739" ry="3.71513" transform="matrix(1 0 0 -1 315.575 693.801)" fill="#53BD9A"/>
<ellipse cx="3.85739" cy="3.71513" rx="3.85739" ry="3.71513" transform="matrix(1 0 0 -1 274.43 693.801)" fill="#53BD9A"/>
<ellipse cx="3.85739" cy="3.71513" rx="3.85739" ry="3.71513" transform="matrix(1 0 0 -1 337.005 629.819)" fill="#53BD9A"/>
<ellipse cx="3.85739" cy="3.71513" rx="3.85739" ry="3.71513" transform="matrix(1 0 0 -1 295.859 629.819)" fill="#53BD9A"/>
<ellipse cx="3.85739" cy="3.71513" rx="3.85739" ry="3.71513" transform="matrix(1 0 0 -1 254.715 629.819)" fill="#53BD9A"/>
<ellipse cx="3.85739" cy="3.71513" rx="3.85739" ry="3.71513" transform="matrix(1 0 0 -1 350.72 629.819)" fill="#53BD9A"/>
<ellipse cx="3.85739" cy="3.71513" rx="3.85739" ry="3.71513" transform="matrix(1 0 0 -1 309.575 629.819)" fill="#53BD9A"/>
<ellipse cx="3.85739" cy="3.71513" rx="3.85739" ry="3.71513" transform="matrix(1 0 0 -1 268.43 629.819)" fill="#53BD9A"/>
<ellipse cx="3.85739" cy="3.71513" rx="3.85739" ry="3.71513" transform="matrix(1 0 0 -1 364.435 629.819)" fill="#53BD9A"/>
<ellipse cx="3.85739" cy="3.71513" rx="3.85739" ry="3.71513" transform="matrix(1 0 0 -1 323.29 629.819)" fill="#53BD9A"/>
<ellipse cx="3.85739" cy="3.71513" rx="3.85739" ry="3.71513" transform="matrix(1 0 0 -1 282.145 629.819)" fill="#53BD9A"/>
<ellipse cx="3.85739" cy="3.71513" rx="3.85739" ry="3.71513" transform="matrix(1 0 0 -1 337.004 604.226)" fill="#53BD9A"/>
<ellipse cx="3.85739" cy="3.71513" rx="3.85739" ry="3.71513" transform="matrix(1 0 0 -1 295.859 604.226)" fill="#53BD9A"/>
<ellipse cx="3.85739" cy="3.71513" rx="3.85739" ry="3.71513" transform="matrix(1 0 0 -1 254.715 604.226)" fill="#53BD9A"/>
<ellipse cx="3.85739" cy="3.71513" rx="3.85739" ry="3.71513" transform="matrix(1 0 0 -1 350.719 604.226)" fill="#53BD9A"/>
<ellipse cx="3.85739" cy="3.71513" rx="3.85739" ry="3.71513" transform="matrix(1 0 0 -1 309.575 604.226)" fill="#53BD9A"/>
<ellipse cx="3.85739" cy="3.71513" rx="3.85739" ry="3.71513" transform="matrix(1 0 0 -1 268.43 604.226)" fill="#53BD9A"/>
<ellipse cx="3.85739" cy="3.71513" rx="3.85739" ry="3.71513" transform="matrix(1 0 0 -1 364.435 604.226)" fill="#53BD9A"/>
<ellipse cx="3.85739" cy="3.71513" rx="3.85739" ry="3.71513" transform="matrix(1 0 0 -1 323.29 604.226)" fill="#53BD9A"/>
<ellipse cx="3.85739" cy="3.71513" rx="3.85739" ry="3.71513" transform="matrix(1 0 0 -1 282.144 604.226)" fill="#53BD9A"/>
<ellipse cx="3.85739" cy="3.71513" rx="3.85739" ry="3.71513" transform="matrix(1 0 0 -1 337.004 655.412)" fill="#53BD9A"/>
<ellipse cx="3.85739" cy="3.71513" rx="3.85739" ry="3.71513" transform="matrix(1 0 0 -1 295.859 655.412)" fill="#53BD9A"/>
<ellipse cx="3.85739" cy="3.71513" rx="3.85739" ry="3.71513" transform="matrix(1 0 0 -1 254.715 655.412)" fill="#53BD9A"/>
<ellipse cx="3.85739" cy="3.71513" rx="3.85739" ry="3.71513" transform="matrix(1 0 0 -1 350.72 655.412)" fill="#53BD9A"/>
<ellipse cx="3.85739" cy="3.71513" rx="3.85739" ry="3.71513" transform="matrix(1 0 0 -1 309.574 655.412)" fill="#53BD9A"/>
<ellipse cx="3.85739" cy="3.71513" rx="3.85739" ry="3.71513" transform="matrix(1 0 0 -1 268.43 655.412)" fill="#53BD9A"/>
<ellipse cx="3.85739" cy="3.71513" rx="3.85739" ry="3.71513" transform="matrix(1 0 0 -1 364.435 655.412)" fill="#53BD9A"/>
<ellipse cx="3.85739" cy="3.71513" rx="3.85739" ry="3.71513" transform="matrix(1 0 0 -1 323.289 655.412)" fill="#53BD9A"/>
<ellipse cx="3.85739" cy="3.71513" rx="3.85739" ry="3.71513" transform="matrix(1 0 0 -1 282.146 655.412)" fill="#53BD9A"/>
<ellipse cx="3.85739" cy="3.71513" rx="3.85739" ry="3.71513" transform="matrix(1 0 0 -1 337.004 681.005)" fill="#53BD9A"/>
<ellipse cx="3.85739" cy="3.71513" rx="3.85739" ry="3.71513" transform="matrix(1 0 0 -1 295.859 681.005)" fill="#53BD9A"/>
<ellipse cx="3.85739" cy="3.71513" rx="3.85739" ry="3.71513" transform="matrix(1 0 0 -1 254.715 681.005)" fill="#53BD9A"/>
<ellipse cx="3.85739" cy="3.71513" rx="3.85739" ry="3.71513" transform="matrix(1 0 0 -1 350.719 681.005)" fill="#53BD9A"/>
<ellipse cx="3.85739" cy="3.71513" rx="3.85739" ry="3.71513" transform="matrix(1 0 0 -1 309.575 681.005)" fill="#53BD9A"/>
<ellipse cx="3.85739" cy="3.71513" rx="3.85739" ry="3.71513" transform="matrix(1 0 0 -1 268.43 681.005)" fill="#53BD9A"/>
<ellipse cx="3.85739" cy="3.71513" rx="3.85739" ry="3.71513" transform="matrix(1 0 0 -1 364.434 681.005)" fill="#53BD9A"/>
<ellipse cx="3.85739" cy="3.71513" rx="3.85739" ry="3.71513" transform="matrix(1 0 0 -1 323.29 681.005)" fill="#53BD9A"/>
<ellipse cx="3.85739" cy="3.71513" rx="3.85739" ry="3.71513" transform="matrix(1 0 0 -1 282.145 681.005)" fill="#53BD9A"/>
<ellipse cx="3.85739" cy="3.71513" rx="3.85739" ry="3.71513" transform="matrix(1 0 0 -1 337.004 706.597)" fill="#53BD9A"/>
<ellipse cx="3.85739" cy="3.71513" rx="3.85739" ry="3.71513" transform="matrix(1 0 0 -1 295.859 706.597)" fill="#53BD9A"/>
<ellipse cx="3.85739" cy="3.71513" rx="3.85739" ry="3.71513" transform="matrix(1 0 0 -1 254.715 706.597)" fill="#53BD9A"/>
<ellipse cx="3.85739" cy="3.71513" rx="3.85739" ry="3.71513" transform="matrix(1 0 0 -1 350.719 706.597)" fill="#53BD9A"/>
<ellipse cx="3.85739" cy="3.71513" rx="3.85739" ry="3.71513" transform="matrix(1 0 0 -1 309.574 706.597)" fill="#53BD9A"/>
<ellipse cx="3.85739" cy="3.71513" rx="3.85739" ry="3.71513" transform="matrix(1 0 0 -1 268.43 706.597)" fill="#53BD9A"/>
<ellipse cx="3.85739" cy="3.71513" rx="3.85739" ry="3.71513" transform="matrix(1 0 0 -1 364.434 706.597)" fill="#53BD9A"/>
<ellipse cx="3.85739" cy="3.71513" rx="3.85739" ry="3.71513" transform="matrix(1 0 0 -1 323.289 706.597)" fill="#53BD9A"/>
<ellipse cx="3.85739" cy="3.71513" rx="3.85739" ry="3.71513" transform="matrix(1 0 0 -1 282.145 706.597)" fill="#53BD9A"/>
</mask>
<g mask="url(#mask3_800_3630)">
<ellipse cx="54.4312" cy="52.4238" rx="54.4312" ry="52.4238" transform="matrix(1 0 0 -1 258.573 692.563)" fill="#53BD9A"/>
</g>
<mask id="mask4_800_3630" style="mask-type:alpha" maskUnits="userSpaceOnUse" x="1788" y="401" width="172" height="169">
<ellipse cx="5.27521" cy="5.08067" rx="5.27521" ry="5.08067" transform="matrix(1 0 0 -1 1900.54 447.16)" fill="#53BD9A"/>
<ellipse cx="5.27521" cy="5.08067" rx="5.27521" ry="5.08067" transform="matrix(1 0 0 -1 1844.27 447.16)" fill="#53BD9A"/>
<ellipse cx="5.27521" cy="5.08067" rx="5.27521" ry="5.08067" transform="matrix(1 0 0 -1 1788 447.16)" fill="#53BD9A"/>
<ellipse cx="5.27521" cy="5.08067" rx="5.27521" ry="5.08067" transform="matrix(1 0 0 -1 1919.29 447.16)" fill="#53BD9A"/>
<ellipse cx="5.27521" cy="5.08067" rx="5.27521" ry="5.08067" transform="matrix(1 0 0 -1 1863.02 447.16)" fill="#53BD9A"/>
<ellipse cx="5.27521" cy="5.08067" rx="5.27521" ry="5.08067" transform="matrix(1 0 0 -1 1806.76 447.16)" fill="#53BD9A"/>
<ellipse cx="5.27521" cy="5.08067" rx="5.27521" ry="5.08067" transform="matrix(1 0 0 -1 1881.78 447.16)" fill="#53BD9A"/>
<ellipse cx="5.27521" cy="5.08067" rx="5.27521" ry="5.08067" transform="matrix(1 0 0 -1 1825.51 447.16)" fill="#53BD9A"/>
<ellipse cx="5.27521" cy="5.08067" rx="5.27521" ry="5.08067" transform="matrix(1 0 0 -1 1900.54 412.161)" fill="#53BD9A"/>
<ellipse cx="5.27521" cy="5.08067" rx="5.27521" ry="5.08067" transform="matrix(1 0 0 -1 1844.27 412.161)" fill="#53BD9A"/>
<ellipse cx="5.27521" cy="5.08067" rx="5.27521" ry="5.08067" transform="matrix(1 0 0 -1 1788 412.161)" fill="#53BD9A"/>
<ellipse cx="5.27521" cy="5.08067" rx="5.27521" ry="5.08067" transform="matrix(1 0 0 -1 1919.29 412.161)" fill="#53BD9A"/>
<ellipse cx="5.27521" cy="5.08067" rx="5.27521" ry="5.08067" transform="matrix(1 0 0 -1 1863.02 412.161)" fill="#53BD9A"/>
<ellipse cx="5.27521" cy="5.08067" rx="5.27521" ry="5.08067" transform="matrix(1 0 0 -1 1806.76 412.161)" fill="#53BD9A"/>
<ellipse cx="5.27521" cy="5.08067" rx="5.27521" ry="5.08067" transform="matrix(1 0 0 -1 1881.78 412.161)" fill="#53BD9A"/>
<ellipse cx="5.27521" cy="5.08067" rx="5.27521" ry="5.08067" transform="matrix(1 0 0 -1 1825.51 412.161)" fill="#53BD9A"/>
<ellipse cx="5.27521" cy="5.08067" rx="5.27521" ry="5.08067" transform="matrix(1 0 0 -1 1900.54 482.16)" fill="#53BD9A"/>
<ellipse cx="5.27521" cy="5.08067" rx="5.27521" ry="5.08067" transform="matrix(1 0 0 -1 1844.27 482.16)" fill="#53BD9A"/>
<ellipse cx="5.27521" cy="5.08067" rx="5.27521" ry="5.08067" transform="matrix(1 0 0 -1 1788 482.16)" fill="#53BD9A"/>
<ellipse cx="5.27521" cy="5.08067" rx="5.27521" ry="5.08067" transform="matrix(1 0 0 -1 1919.29 482.16)" fill="#53BD9A"/>
<ellipse cx="5.27521" cy="5.08067" rx="5.27521" ry="5.08067" transform="matrix(1 0 0 -1 1863.02 482.16)" fill="#53BD9A"/>
<ellipse cx="5.27521" cy="5.08067" rx="5.27521" ry="5.08067" transform="matrix(1 0 0 -1 1806.76 482.16)" fill="#53BD9A"/>
<ellipse cx="5.27521" cy="5.08067" rx="5.27521" ry="5.08067" transform="matrix(1 0 0 -1 1881.78 482.16)" fill="#53BD9A"/>
<ellipse cx="5.27521" cy="5.08067" rx="5.27521" ry="5.08067" transform="matrix(1 0 0 -1 1825.51 482.16)" fill="#53BD9A"/>
<ellipse cx="5.27521" cy="5.08067" rx="5.27521" ry="5.08067" transform="matrix(1 0 0 -1 1900.54 517.16)" fill="#53BD9A"/>
<ellipse cx="5.27521" cy="5.08067" rx="5.27521" ry="5.08067" transform="matrix(1 0 0 -1 1844.27 517.16)" fill="#53BD9A"/>
<ellipse cx="5.27521" cy="5.08067" rx="5.27521" ry="5.08067" transform="matrix(1 0 0 -1 1788 517.16)" fill="#53BD9A"/>
<ellipse cx="5.27521" cy="5.08067" rx="5.27521" ry="5.08067" transform="matrix(1 0 0 -1 1919.29 517.16)" fill="#53BD9A"/>
<ellipse cx="5.27521" cy="5.08067" rx="5.27521" ry="5.08067" transform="matrix(1 0 0 -1 1863.02 517.16)" fill="#53BD9A"/>
<ellipse cx="5.27521" cy="5.08067" rx="5.27521" ry="5.08067" transform="matrix(1 0 0 -1 1806.76 517.16)" fill="#53BD9A"/>
<ellipse cx="5.27521" cy="5.08067" rx="5.27521" ry="5.08067" transform="matrix(1 0 0 -1 1881.78 517.16)" fill="#53BD9A"/>
<ellipse cx="5.27521" cy="5.08067" rx="5.27521" ry="5.08067" transform="matrix(1 0 0 -1 1825.51 517.16)" fill="#53BD9A"/>
<ellipse cx="5.27521" cy="5.08067" rx="5.27521" ry="5.08067" transform="matrix(1 0 0 -1 1900.54 552.159)" fill="#53BD9A"/>
<ellipse cx="5.27521" cy="5.08067" rx="5.27521" ry="5.08067" transform="matrix(1 0 0 -1 1844.27 552.159)" fill="#53BD9A"/>
<ellipse cx="5.27521" cy="5.08067" rx="5.27521" ry="5.08067" transform="matrix(1 0 0 -1 1788 552.159)" fill="#53BD9A"/>
<ellipse cx="5.27521" cy="5.08067" rx="5.27521" ry="5.08067" transform="matrix(1 0 0 -1 1919.29 552.159)" fill="#53BD9A"/>
<ellipse cx="5.27521" cy="5.08067" rx="5.27521" ry="5.08067" transform="matrix(1 0 0 -1 1863.02 552.159)" fill="#53BD9A"/>
<ellipse cx="5.27521" cy="5.08067" rx="5.27521" ry="5.08067" transform="matrix(1 0 0 -1 1806.76 552.159)" fill="#53BD9A"/>
<ellipse cx="5.27521" cy="5.08067" rx="5.27521" ry="5.08067" transform="matrix(1 0 0 -1 1881.78 552.159)" fill="#53BD9A"/>
<ellipse cx="5.27521" cy="5.08067" rx="5.27521" ry="5.08067" transform="matrix(1 0 0 -1 1825.51 552.159)" fill="#53BD9A"/>
<ellipse cx="5.27521" cy="5.08067" rx="5.27521" ry="5.08067" transform="matrix(1 0 0 -1 1911.09 464.66)" fill="#53BD9A"/>
<ellipse cx="5.27521" cy="5.08067" rx="5.27521" ry="5.08067" transform="matrix(1 0 0 -1 1854.82 464.66)" fill="#53BD9A"/>
<ellipse cx="5.27521" cy="5.08067" rx="5.27521" ry="5.08067" transform="matrix(1 0 0 -1 1798.55 464.66)" fill="#53BD9A"/>
<ellipse cx="5.27521" cy="5.08067" rx="5.27521" ry="5.08067" transform="matrix(1 0 0 -1 1873.57 464.66)" fill="#53BD9A"/>
<ellipse cx="5.27521" cy="5.08067" rx="5.27521" ry="5.08067" transform="matrix(1 0 0 -1 1817.31 464.66)" fill="#53BD9A"/>
<ellipse cx="5.27521" cy="5.08067" rx="5.27521" ry="5.08067" transform="matrix(1 0 0 -1 1892.33 464.66)" fill="#53BD9A"/>
<ellipse cx="5.27521" cy="5.08067" rx="5.27521" ry="5.08067" transform="matrix(1 0 0 -1 1836.06 464.66)" fill="#53BD9A"/>
<ellipse cx="5.27521" cy="5.08067" rx="5.27521" ry="5.08067" transform="matrix(1 0 0 -1 1911.08 429.661)" fill="#53BD9A"/>
<ellipse cx="5.27521" cy="5.08067" rx="5.27521" ry="5.08067" transform="matrix(1 0 0 -1 1854.82 429.661)" fill="#53BD9A"/>
<ellipse cx="5.27521" cy="5.08067" rx="5.27521" ry="5.08067" transform="matrix(1 0 0 -1 1798.55 429.661)" fill="#53BD9A"/>
<ellipse cx="5.27521" cy="5.08067" rx="5.27521" ry="5.08067" transform="matrix(1 0 0 -1 1873.57 429.661)" fill="#53BD9A"/>
<ellipse cx="5.27521" cy="5.08067" rx="5.27521" ry="5.08067" transform="matrix(1 0 0 -1 1817.31 429.661)" fill="#53BD9A"/>
<ellipse cx="5.27521" cy="5.08067" rx="5.27521" ry="5.08067" transform="matrix(1 0 0 -1 1892.33 429.661)" fill="#53BD9A"/>
<ellipse cx="5.27521" cy="5.08067" rx="5.27521" ry="5.08067" transform="matrix(1 0 0 -1 1836.06 429.661)" fill="#53BD9A"/>
<ellipse cx="5.27521" cy="5.08067" rx="5.27521" ry="5.08067" transform="matrix(1 0 0 -1 1911.09 499.66)" fill="#53BD9A"/>
<ellipse cx="5.27521" cy="5.08067" rx="5.27521" ry="5.08067" transform="matrix(1 0 0 -1 1854.82 499.66)" fill="#53BD9A"/>
<ellipse cx="5.27521" cy="5.08067" rx="5.27521" ry="5.08067" transform="matrix(1 0 0 -1 1798.55 499.66)" fill="#53BD9A"/>
<ellipse cx="5.27521" cy="5.08067" rx="5.27521" ry="5.08067" transform="matrix(1 0 0 -1 1873.57 499.66)" fill="#53BD9A"/>
<ellipse cx="5.27521" cy="5.08067" rx="5.27521" ry="5.08067" transform="matrix(1 0 0 -1 1817.31 499.66)" fill="#53BD9A"/>
<ellipse cx="5.27521" cy="5.08067" rx="5.27521" ry="5.08067" transform="matrix(1 0 0 -1 1892.33 499.66)" fill="#53BD9A"/>
<ellipse cx="5.27521" cy="5.08067" rx="5.27521" ry="5.08067" transform="matrix(1 0 0 -1 1836.06 499.66)" fill="#53BD9A"/>
<ellipse cx="5.27521" cy="5.08067" rx="5.27521" ry="5.08067" transform="matrix(1 0 0 -1 1911.09 534.66)" fill="#53BD9A"/>
<ellipse cx="5.27521" cy="5.08067" rx="5.27521" ry="5.08067" transform="matrix(1 0 0 -1 1854.82 534.66)" fill="#53BD9A"/>
<ellipse cx="5.27521" cy="5.08067" rx="5.27521" ry="5.08067" transform="matrix(1 0 0 -1 1798.55 534.66)" fill="#53BD9A"/>
<ellipse cx="5.27521" cy="5.08067" rx="5.27521" ry="5.08067" transform="matrix(1 0 0 -1 1873.57 534.66)" fill="#53BD9A"/>
<ellipse cx="5.27521" cy="5.08067" rx="5.27521" ry="5.08067" transform="matrix(1 0 0 -1 1817.31 534.66)" fill="#53BD9A"/>
<ellipse cx="5.27521" cy="5.08067" rx="5.27521" ry="5.08067" transform="matrix(1 0 0 -1 1892.33 534.66)" fill="#53BD9A"/>
<ellipse cx="5.27521" cy="5.08067" rx="5.27521" ry="5.08067" transform="matrix(1 0 0 -1 1836.06 534.66)" fill="#53BD9A"/>
<ellipse cx="5.27521" cy="5.08067" rx="5.27521" ry="5.08067" transform="matrix(1 0 0 -1 1911.09 569.659)" fill="#53BD9A"/>
<ellipse cx="5.27521" cy="5.08067" rx="5.27521" ry="5.08067" transform="matrix(1 0 0 -1 1854.82 569.659)" fill="#53BD9A"/>
<ellipse cx="5.27521" cy="5.08067" rx="5.27521" ry="5.08067" transform="matrix(1 0 0 -1 1798.55 569.659)" fill="#53BD9A"/>
<ellipse cx="5.27521" cy="5.08067" rx="5.27521" ry="5.08067" transform="matrix(1 0 0 -1 1873.57 569.659)" fill="#53BD9A"/>
<ellipse cx="5.27521" cy="5.08067" rx="5.27521" ry="5.08067" transform="matrix(1 0 0 -1 1817.31 569.659)" fill="#53BD9A"/>
<ellipse cx="5.27521" cy="5.08067" rx="5.27521" ry="5.08067" transform="matrix(1 0 0 -1 1892.33 569.659)" fill="#53BD9A"/>
<ellipse cx="5.27521" cy="5.08067" rx="5.27521" ry="5.08067" transform="matrix(1 0 0 -1 1836.06 569.659)" fill="#53BD9A"/>
</mask>
<g mask="url(#mask4_800_3630)">
<ellipse cx="74.438" cy="71.6928" rx="74.438" ry="71.6928" transform="matrix(1 0 0 -1 1803.83 550.466)" fill="#53BD9A"/>
</g>
<circle cx="402.5" cy="1413.5" r="37.5" fill="url(#paint4_linear_800_3630)" fill-opacity="0.3"/>
<circle cx="1388.5" cy="947.5" r="138.5" fill="url(#paint5_linear_800_3630)" fill-opacity="0.3"/>
<circle cx="577.083" cy="192.083" r="124.992" transform="rotate(-105 577.083 192.083)" fill="url(#paint6_linear_800_3630)" fill-opacity="0.3"/>
</g>
</g>
<defs>
<linearGradient id="paint0_linear_800_3630" x1="1138.53" y1="2501.85" x2="444.671" y2="-87.6578" gradientUnits="userSpaceOnUse">
<stop stop-color="#53BD9A"/>
<stop offset="1" stop-color="#DDF2EB"/>
</linearGradient>
<linearGradient id="paint1_linear_800_3630" x1="2335.59" y1="4266.75" x2="680.154" y2="-1911.42" gradientUnits="userSpaceOnUse">
<stop stop-color="#53BD9A"/>
<stop offset="1" stop-color="#DDF2EB"/>
</linearGradient>
<linearGradient id="paint2_linear_800_3630" x1="1329.47" y1="1197.83" x2="1329.47" y2="1704.51" gradientUnits="userSpaceOnUse">
<stop stop-color="#53BD9A"/>
<stop offset="1" stop-color="#53BD9A" stop-opacity="0"/>
</linearGradient>
<linearGradient id="paint3_linear_800_3630" x1="-277.5" y1="1550.82" x2="431.675" y2="1132.81" gradientUnits="userSpaceOnUse">
<stop stop-color="#53BD9A"/>
<stop offset="1" stop-color="#53BD9A" stop-opacity="0"/>
</linearGradient>
<linearGradient id="paint4_linear_800_3630" x1="402.5" y1="1376" x2="445.067" y2="1431.33" gradientUnits="userSpaceOnUse">
<stop stop-color="#F7F5ED"/>
<stop offset="0.541667" stop-color="#F7F5ED" stop-opacity="0.458333"/>
<stop offset="1" stop-color="#F7F5ED" stop-opacity="0"/>
</linearGradient>
<linearGradient id="paint5_linear_800_3630" x1="1388.5" y1="809" x2="1545.71" y2="1013.36" gradientUnits="userSpaceOnUse">
<stop stop-color="#F7F5ED"/>
<stop offset="0.541667" stop-color="#F7F5ED" stop-opacity="0.458333"/>
<stop offset="1" stop-color="#F7F5ED" stop-opacity="0"/>
</linearGradient>
<linearGradient id="paint6_linear_800_3630" x1="577.083" y1="67.0911" x2="718.962" y2="251.521" gradientUnits="userSpaceOnUse">
<stop stop-color="#F7F5ED"/>
<stop offset="0.541667" stop-color="#F7F5ED" stop-opacity="0.458333"/>
<stop offset="1" stop-color="#F7F5ED" stop-opacity="0"/>
</linearGradient>
</defs>
</svg>
