<svg width="1920" height="1591" viewBox="0 0 1920 1591" fill="none" xmlns="http://www.w3.org/2000/svg">
<g opacity="0.9">
<path d="M1920 1591L-0.00012207 1591L1.70193e-05 -4.57814e-05L1920 0.00012207L1920 1591Z" fill="url(#paint0_linear_669_10918)"/>
</g>
<mask id="mask0_669_10918" style="mask-type:alpha" maskUnits="userSpaceOnUse" x="0" y="0" width="1920" height="1591">
<path d="M1920 1591L-0.00012207 1591L1.70193e-05 -4.57814e-05L1920 0.00012207L1920 1591Z" fill="black"/>
</mask>
<g mask="url(#mask0_669_10918)">
<mask id="mask1_669_10918" style="mask-type:alpha" maskUnits="userSpaceOnUse" x="-254" y="389" width="1405" height="1415">
<ellipse cx="448.714" cy="1096.14" rx="701.248" ry="707.261" transform="rotate(165 448.714 1096.14)" fill="#D9D9D9"/>
</mask>
<g mask="url(#mask1_669_10918)">
<path d="M2686.76 2087L-409.71 2916.7L-1103.57 327.19L1992.91 -502.507L2686.76 2087Z" fill="url(#paint1_linear_669_10918)"/>
</g>
<circle cx="1913.29" cy="-19.1237" r="576.286" fill="#F7F5ED" fill-opacity="0.3"/>
<circle cx="1917.98" cy="-28.7141" r="576.286" fill="url(#paint2_linear_669_10918)"/>
<ellipse cx="-95.7718" cy="1302.06" rx="410.697" ry="411.6" transform="rotate(-120.516 -95.7718 1302.06)" fill="url(#paint3_linear_669_10918)"/>
<circle cx="468.902" cy="1098.48" r="728.707" fill="#53BD9A" fill-opacity="0.1"/>
<path d="M1807.64 1416.43C1775.74 1929.65 1304.29 2305.17 754.277 2254.77C204.264 2204.37 -215.424 1747.19 -183.522 1233.97C-151.621 720.749 319.828 345.235 869.84 395.636C1419.85 446.037 1839.54 903.211 1807.64 1416.43Z" stroke="#F7F5ED" stroke-opacity="0.3" stroke-width="5"/>
<path d="M1017.36 2240.29C470.24 2385.05 -80.1465 2097.01 -212.313 1597.5C-344.479 1097.99 -8.5688 575.443 538.551 430.679C1085.67 285.915 1636.06 573.955 1768.22 1073.46C1900.39 1572.97 1564.48 2095.52 1017.36 2240.29Z" stroke="#F7F5ED" stroke-opacity="0.3" stroke-width="5"/>
<mask id="mask2_669_10918" style="mask-type:alpha" maskUnits="userSpaceOnUse" x="364" y="1188" width="172" height="168">
<ellipse cx="5.27521" cy="5.08067" rx="5.27521" ry="5.08067" transform="matrix(1 0 0 -1 477.27 1233.29)" fill="#53BD9A"/>
<ellipse cx="5.27521" cy="5.08067" rx="5.27521" ry="5.08067" transform="matrix(1 0 0 -1 421.001 1233.29)" fill="#53BD9A"/>
<ellipse cx="5.27521" cy="5.08067" rx="5.27521" ry="5.08067" transform="matrix(1 0 0 -1 364.734 1233.29)" fill="#53BD9A"/>
<ellipse cx="5.27521" cy="5.08067" rx="5.27521" ry="5.08067" transform="matrix(1 0 0 -1 496.026 1233.29)" fill="#53BD9A"/>
<ellipse cx="5.27521" cy="5.08067" rx="5.27521" ry="5.08067" transform="matrix(1 0 0 -1 439.758 1233.29)" fill="#53BD9A"/>
<ellipse cx="5.27521" cy="5.08067" rx="5.27521" ry="5.08067" transform="matrix(1 0 0 -1 383.49 1233.29)" fill="#53BD9A"/>
<ellipse cx="5.27521" cy="5.08067" rx="5.27521" ry="5.08067" transform="matrix(1 0 0 -1 514.783 1233.29)" fill="#53BD9A"/>
<ellipse cx="5.27521" cy="5.08067" rx="5.27521" ry="5.08067" transform="matrix(1 0 0 -1 458.514 1233.29)" fill="#53BD9A"/>
<ellipse cx="5.27521" cy="5.08067" rx="5.27521" ry="5.08067" transform="matrix(1 0 0 -1 402.246 1233.29)" fill="#53BD9A"/>
<ellipse cx="5.27521" cy="5.08067" rx="5.27521" ry="5.08067" transform="matrix(1 0 0 -1 477.27 1198.29)" fill="#53BD9A"/>
<ellipse cx="5.27521" cy="5.08067" rx="5.27521" ry="5.08067" transform="matrix(1 0 0 -1 421.001 1198.29)" fill="#53BD9A"/>
<ellipse cx="5.27521" cy="5.08067" rx="5.27521" ry="5.08067" transform="matrix(1 0 0 -1 364.733 1198.29)" fill="#53BD9A"/>
<ellipse cx="5.27521" cy="5.08067" rx="5.27521" ry="5.08067" transform="matrix(1 0 0 -1 496.026 1198.29)" fill="#53BD9A"/>
<ellipse cx="5.27521" cy="5.08067" rx="5.27521" ry="5.08067" transform="matrix(1 0 0 -1 439.757 1198.29)" fill="#53BD9A"/>
<ellipse cx="5.27521" cy="5.08067" rx="5.27521" ry="5.08067" transform="matrix(1 0 0 -1 383.49 1198.29)" fill="#53BD9A"/>
<ellipse cx="5.27521" cy="5.08067" rx="5.27521" ry="5.08067" transform="matrix(1 0 0 -1 514.782 1198.29)" fill="#53BD9A"/>
<ellipse cx="5.27521" cy="5.08067" rx="5.27521" ry="5.08067" transform="matrix(1 0 0 -1 458.514 1198.29)" fill="#53BD9A"/>
<ellipse cx="5.27521" cy="5.08067" rx="5.27521" ry="5.08067" transform="matrix(1 0 0 -1 402.246 1198.29)" fill="#53BD9A"/>
<ellipse cx="5.27521" cy="5.08067" rx="5.27521" ry="5.08067" transform="matrix(1 0 0 -1 477.27 1268.29)" fill="#53BD9A"/>
<ellipse cx="5.27521" cy="5.08067" rx="5.27521" ry="5.08067" transform="matrix(1 0 0 -1 421.001 1268.29)" fill="#53BD9A"/>
<ellipse cx="5.27521" cy="5.08067" rx="5.27521" ry="5.08067" transform="matrix(1 0 0 -1 364.733 1268.29)" fill="#53BD9A"/>
<ellipse cx="5.27521" cy="5.08067" rx="5.27521" ry="5.08067" transform="matrix(1 0 0 -1 496.026 1268.29)" fill="#53BD9A"/>
<ellipse cx="5.27521" cy="5.08067" rx="5.27521" ry="5.08067" transform="matrix(1 0 0 -1 439.758 1268.29)" fill="#53BD9A"/>
<ellipse cx="5.27521" cy="5.08067" rx="5.27521" ry="5.08067" transform="matrix(1 0 0 -1 383.49 1268.29)" fill="#53BD9A"/>
<ellipse cx="5.27521" cy="5.08067" rx="5.27521" ry="5.08067" transform="matrix(1 0 0 -1 514.782 1268.29)" fill="#53BD9A"/>
<ellipse cx="5.27521" cy="5.08067" rx="5.27521" ry="5.08067" transform="matrix(1 0 0 -1 458.514 1268.29)" fill="#53BD9A"/>
<ellipse cx="5.27521" cy="5.08067" rx="5.27521" ry="5.08067" transform="matrix(1 0 0 -1 402.246 1268.29)" fill="#53BD9A"/>
<ellipse cx="5.27521" cy="5.08067" rx="5.27521" ry="5.08067" transform="matrix(1 0 0 -1 477.27 1303.29)" fill="#53BD9A"/>
<ellipse cx="5.27521" cy="5.08067" rx="5.27521" ry="5.08067" transform="matrix(1 0 0 -1 421.001 1303.29)" fill="#53BD9A"/>
<ellipse cx="5.27521" cy="5.08067" rx="5.27521" ry="5.08067" transform="matrix(1 0 0 -1 364.733 1303.29)" fill="#53BD9A"/>
<ellipse cx="5.27521" cy="5.08067" rx="5.27521" ry="5.08067" transform="matrix(1 0 0 -1 496.026 1303.29)" fill="#53BD9A"/>
<ellipse cx="5.27521" cy="5.08067" rx="5.27521" ry="5.08067" transform="matrix(1 0 0 -1 439.757 1303.29)" fill="#53BD9A"/>
<ellipse cx="5.27521" cy="5.08067" rx="5.27521" ry="5.08067" transform="matrix(1 0 0 -1 383.49 1303.29)" fill="#53BD9A"/>
<ellipse cx="5.27521" cy="5.08067" rx="5.27521" ry="5.08067" transform="matrix(1 0 0 -1 514.782 1303.29)" fill="#53BD9A"/>
<ellipse cx="5.27521" cy="5.08067" rx="5.27521" ry="5.08067" transform="matrix(1 0 0 -1 458.514 1303.29)" fill="#53BD9A"/>
<ellipse cx="5.27521" cy="5.08067" rx="5.27521" ry="5.08067" transform="matrix(1 0 0 -1 402.246 1303.29)" fill="#53BD9A"/>
<ellipse cx="5.27521" cy="5.08067" rx="5.27521" ry="5.08067" transform="matrix(1 0 0 -1 477.27 1338.28)" fill="#53BD9A"/>
<ellipse cx="5.27521" cy="5.08067" rx="5.27521" ry="5.08067" transform="matrix(1 0 0 -1 421.001 1338.28)" fill="#53BD9A"/>
<ellipse cx="5.27521" cy="5.08067" rx="5.27521" ry="5.08067" transform="matrix(1 0 0 -1 364.734 1338.28)" fill="#53BD9A"/>
<ellipse cx="5.27521" cy="5.08067" rx="5.27521" ry="5.08067" transform="matrix(1 0 0 -1 496.026 1338.28)" fill="#53BD9A"/>
<ellipse cx="5.27521" cy="5.08067" rx="5.27521" ry="5.08067" transform="matrix(1 0 0 -1 439.758 1338.28)" fill="#53BD9A"/>
<ellipse cx="5.27521" cy="5.08067" rx="5.27521" ry="5.08067" transform="matrix(1 0 0 -1 383.49 1338.28)" fill="#53BD9A"/>
<ellipse cx="5.27521" cy="5.08067" rx="5.27521" ry="5.08067" transform="matrix(1 0 0 -1 514.783 1338.28)" fill="#53BD9A"/>
<ellipse cx="5.27521" cy="5.08067" rx="5.27521" ry="5.08067" transform="matrix(1 0 0 -1 458.514 1338.28)" fill="#53BD9A"/>
<ellipse cx="5.27521" cy="5.08067" rx="5.27521" ry="5.08067" transform="matrix(1 0 0 -1 402.246 1338.28)" fill="#53BD9A"/>
<ellipse cx="5.27521" cy="5.08067" rx="5.27521" ry="5.08067" transform="matrix(1 0 0 -1 487.82 1250.79)" fill="#53BD9A"/>
<ellipse cx="5.27521" cy="5.08067" rx="5.27521" ry="5.08067" transform="matrix(1 0 0 -1 431.551 1250.79)" fill="#53BD9A"/>
<ellipse cx="5.27521" cy="5.08067" rx="5.27521" ry="5.08067" transform="matrix(1 0 0 -1 375.284 1250.79)" fill="#53BD9A"/>
<ellipse cx="5.27521" cy="5.08067" rx="5.27521" ry="5.08067" transform="matrix(1 0 0 -1 506.577 1250.79)" fill="#53BD9A"/>
<ellipse cx="5.27521" cy="5.08067" rx="5.27521" ry="5.08067" transform="matrix(1 0 0 -1 450.308 1250.79)" fill="#53BD9A"/>
<ellipse cx="5.27521" cy="5.08067" rx="5.27521" ry="5.08067" transform="matrix(1 0 0 -1 394.041 1250.79)" fill="#53BD9A"/>
<ellipse cx="5.27521" cy="5.08067" rx="5.27521" ry="5.08067" transform="matrix(1 0 0 -1 525.333 1250.79)" fill="#53BD9A"/>
<ellipse cx="5.27521" cy="5.08067" rx="5.27521" ry="5.08067" transform="matrix(1 0 0 -1 469.064 1250.79)" fill="#53BD9A"/>
<ellipse cx="5.27521" cy="5.08067" rx="5.27521" ry="5.08067" transform="matrix(1 0 0 -1 412.796 1250.79)" fill="#53BD9A"/>
<ellipse cx="5.27521" cy="5.08067" rx="5.27521" ry="5.08067" transform="matrix(1 0 0 -1 487.818 1215.79)" fill="#53BD9A"/>
<ellipse cx="5.27521" cy="5.08067" rx="5.27521" ry="5.08067" transform="matrix(1 0 0 -1 431.55 1215.79)" fill="#53BD9A"/>
<ellipse cx="5.27521" cy="5.08067" rx="5.27521" ry="5.08067" transform="matrix(1 0 0 -1 375.283 1215.79)" fill="#53BD9A"/>
<ellipse cx="5.27521" cy="5.08067" rx="5.27521" ry="5.08067" transform="matrix(1 0 0 -1 506.576 1215.79)" fill="#53BD9A"/>
<ellipse cx="5.27521" cy="5.08067" rx="5.27521" ry="5.08067" transform="matrix(1 0 0 -1 450.307 1215.79)" fill="#53BD9A"/>
<ellipse cx="5.27521" cy="5.08067" rx="5.27521" ry="5.08067" transform="matrix(1 0 0 -1 394.039 1215.79)" fill="#53BD9A"/>
<ellipse cx="5.27521" cy="5.08067" rx="5.27521" ry="5.08067" transform="matrix(1 0 0 -1 525.332 1215.79)" fill="#53BD9A"/>
<ellipse cx="5.27521" cy="5.08067" rx="5.27521" ry="5.08067" transform="matrix(1 0 0 -1 469.063 1215.79)" fill="#53BD9A"/>
<ellipse cx="5.27521" cy="5.08067" rx="5.27521" ry="5.08067" transform="matrix(1 0 0 -1 412.794 1215.79)" fill="#53BD9A"/>
<ellipse cx="5.27521" cy="5.08067" rx="5.27521" ry="5.08067" transform="matrix(1 0 0 -1 487.819 1285.79)" fill="#53BD9A"/>
<ellipse cx="5.27521" cy="5.08067" rx="5.27521" ry="5.08067" transform="matrix(1 0 0 -1 431.552 1285.79)" fill="#53BD9A"/>
<ellipse cx="5.27521" cy="5.08067" rx="5.27521" ry="5.08067" transform="matrix(1 0 0 -1 375.284 1285.79)" fill="#53BD9A"/>
<ellipse cx="5.27521" cy="5.08067" rx="5.27521" ry="5.08067" transform="matrix(1 0 0 -1 506.576 1285.79)" fill="#53BD9A"/>
<ellipse cx="5.27521" cy="5.08067" rx="5.27521" ry="5.08067" transform="matrix(1 0 0 -1 450.308 1285.79)" fill="#53BD9A"/>
<ellipse cx="5.27521" cy="5.08067" rx="5.27521" ry="5.08067" transform="matrix(1 0 0 -1 394.041 1285.79)" fill="#53BD9A"/>
<ellipse cx="5.27521" cy="5.08067" rx="5.27521" ry="5.08067" transform="matrix(1 0 0 -1 525.332 1285.79)" fill="#53BD9A"/>
<ellipse cx="5.27521" cy="5.08067" rx="5.27521" ry="5.08067" transform="matrix(1 0 0 -1 469.063 1285.79)" fill="#53BD9A"/>
<ellipse cx="5.27521" cy="5.08067" rx="5.27521" ry="5.08067" transform="matrix(1 0 0 -1 412.797 1285.79)" fill="#53BD9A"/>
<ellipse cx="5.27521" cy="5.08067" rx="5.27521" ry="5.08067" transform="matrix(1 0 0 -1 487.819 1320.79)" fill="#53BD9A"/>
<ellipse cx="5.27521" cy="5.08067" rx="5.27521" ry="5.08067" transform="matrix(1 0 0 -1 431.551 1320.79)" fill="#53BD9A"/>
<ellipse cx="5.27521" cy="5.08067" rx="5.27521" ry="5.08067" transform="matrix(1 0 0 -1 375.284 1320.79)" fill="#53BD9A"/>
<ellipse cx="5.27521" cy="5.08067" rx="5.27521" ry="5.08067" transform="matrix(1 0 0 -1 506.576 1320.79)" fill="#53BD9A"/>
<ellipse cx="5.27521" cy="5.08067" rx="5.27521" ry="5.08067" transform="matrix(1 0 0 -1 450.308 1320.79)" fill="#53BD9A"/>
<ellipse cx="5.27521" cy="5.08067" rx="5.27521" ry="5.08067" transform="matrix(1 0 0 -1 394.041 1320.79)" fill="#53BD9A"/>
<ellipse cx="5.27521" cy="5.08067" rx="5.27521" ry="5.08067" transform="matrix(1 0 0 -1 525.332 1320.79)" fill="#53BD9A"/>
<ellipse cx="5.27521" cy="5.08067" rx="5.27521" ry="5.08067" transform="matrix(1 0 0 -1 469.063 1320.79)" fill="#53BD9A"/>
<ellipse cx="5.27521" cy="5.08067" rx="5.27521" ry="5.08067" transform="matrix(1 0 0 -1 412.796 1320.79)" fill="#53BD9A"/>
<ellipse cx="5.27521" cy="5.08067" rx="5.27521" ry="5.08067" transform="matrix(1 0 0 -1 487.819 1355.78)" fill="#53BD9A"/>
<ellipse cx="5.27521" cy="5.08067" rx="5.27521" ry="5.08067" transform="matrix(1 0 0 -1 431.551 1355.78)" fill="#53BD9A"/>
<ellipse cx="5.27521" cy="5.08067" rx="5.27521" ry="5.08067" transform="matrix(1 0 0 -1 375.284 1355.78)" fill="#53BD9A"/>
<ellipse cx="5.27521" cy="5.08067" rx="5.27521" ry="5.08067" transform="matrix(1 0 0 -1 506.576 1355.78)" fill="#53BD9A"/>
<ellipse cx="5.27521" cy="5.08067" rx="5.27521" ry="5.08067" transform="matrix(1 0 0 -1 450.307 1355.78)" fill="#53BD9A"/>
<ellipse cx="5.27521" cy="5.08067" rx="5.27521" ry="5.08067" transform="matrix(1 0 0 -1 394.041 1355.78)" fill="#53BD9A"/>
<ellipse cx="5.27521" cy="5.08067" rx="5.27521" ry="5.08067" transform="matrix(1 0 0 -1 525.332 1355.78)" fill="#53BD9A"/>
<ellipse cx="5.27521" cy="5.08067" rx="5.27521" ry="5.08067" transform="matrix(1 0 0 -1 469.063 1355.78)" fill="#53BD9A"/>
<ellipse cx="5.27521" cy="5.08067" rx="5.27521" ry="5.08067" transform="matrix(1 0 0 -1 412.796 1355.78)" fill="#53BD9A"/>
</mask>
<g mask="url(#mask2_669_10918)">
<ellipse cx="74.438" cy="71.6928" rx="74.438" ry="71.6928" transform="matrix(1 0 0 -1 380.56 1336.59)" fill="#53BD9A"/>
</g>
<circle cx="585.608" cy="1366.86" r="143.816" fill="url(#paint4_linear_669_10918)" fill-opacity="0.3"/>
</g>
<defs>
<linearGradient id="paint0_linear_669_10918" x1="169.487" y1="1898.25" x2="1555.26" y2="-0.829463" gradientUnits="userSpaceOnUse">
<stop stop-color="#53BD9A"/>
<stop offset="1" stop-color="#DDF2EB"/>
</linearGradient>
<linearGradient id="paint1_linear_669_10918" x1="1138.53" y1="2501.85" x2="444.671" y2="-87.6584" gradientUnits="userSpaceOnUse">
<stop stop-color="#53BD9A"/>
<stop offset="1" stop-color="#DDF2EB"/>
</linearGradient>
<linearGradient id="paint2_linear_669_10918" x1="1917.98" y1="-605" x2="1917.98" y2="547.572" gradientUnits="userSpaceOnUse">
<stop stop-color="#F7F5ED"/>
<stop offset="1" stop-color="#A8DDCC"/>
</linearGradient>
<linearGradient id="paint3_linear_669_10918" x1="-95.7719" y1="890.459" x2="-95.7719" y2="1713.66" gradientUnits="userSpaceOnUse">
<stop stop-color="#53BD9A"/>
<stop offset="1" stop-color="#53BD9A" stop-opacity="0"/>
</linearGradient>
<linearGradient id="paint4_linear_669_10918" x1="585.608" y1="1223.04" x2="748.855" y2="1435.25" gradientUnits="userSpaceOnUse">
<stop stop-color="#F7F5ED"/>
<stop offset="0.541667" stop-color="#F7F5ED" stop-opacity="0.458333"/>
<stop offset="1" stop-color="#F7F5ED" stop-opacity="0"/>
</linearGradient>
</defs>
</svg>
