<svg width="110" height="65" viewBox="0 0 110 65" fill="none" xmlns="http://www.w3.org/2000/svg">
<rect x="99" y="27" width="1" height="3" fill="#53BD9A"/>
<rect x="17" y="27" width="1" height="3" fill="#53BD9A"/>
<path d="M35.9252 9.83006C49.7329 9.83006 60.8496 20.5259 60.8496 33.6273C60.8496 46.7287 49.7329 57.4245 35.9252 57.4245C22.1175 57.4245 11.0008 46.7287 11.0008 33.6273C11.0008 20.5259 22.1175 9.83006 35.9252 9.83006Z" stroke="#A8DDCC" stroke-width="2"/>
<path d="M9.09987 23.7466C13.39 11.428 28.0814 5.15808 42.061 10.0266C56.0405 14.8952 63.659 28.9347 59.3688 41.2534C55.0787 53.572 40.3873 59.8419 26.4077 54.9734C12.4282 50.1048 4.80976 36.0653 9.09987 23.7466Z" stroke="#A8DDCC" stroke-width="2"/>
<rect x="23.7001" y="25.1719" width="86.1067" height="17.4045" fill="#53BD9A"/>
<path d="M29.5462 31.6489C28.7384 31.6274 27.7716 31.6961 26.8047 31.6016C26.2977 31.5543 25.7906 31.4856 25.2964 31.3395C23.7839 30.8926 23.496 29.5777 23.8183 28.469C24.0331 27.7299 24.6046 27.3475 25.2707 27.0682C25.8508 26.8233 26.4695 26.733 27.0883 26.6986C28.7942 26.6041 30.5045 26.5869 32.2061 26.7975C34.4879 27.0811 36.0735 28.1854 36.6536 30.7035C37.1993 33.0583 37.0962 35.4174 36.4 37.7378C35.9274 39.3234 34.8101 40.1742 33.2116 40.4664C32.4424 40.6039 31.669 40.6727 30.8869 40.6555C29.7396 40.6297 28.588 40.707 27.4407 40.6039C26.8133 40.5481 26.1945 40.4492 25.6101 40.1871C24.6089 39.7316 24.3253 38.9324 24.6132 37.9483C24.7636 37.437 25.189 37.1792 25.6617 37.0116C26.2676 36.7967 26.9078 36.7409 27.5438 36.7366C29.0564 36.7194 30.5689 36.7194 32.0772 36.7194C32.2663 36.7194 32.3135 36.6506 32.335 36.4787C32.451 35.5549 32.4339 34.6224 32.4639 33.6943C32.4854 33.0755 32.3737 32.4653 32.3264 31.8508C32.3135 31.6961 32.2405 31.6446 32.0815 31.6446C31.2865 31.6532 30.4916 31.6446 29.5333 31.6446L29.5462 31.6489Z" fill="#F7F5ED"/>
<path d="M86.5038 26.0884C87.621 26.0927 88.6094 26.0584 89.5977 26.2131C91.3466 26.4795 92.206 27.2744 92.5712 28.9976C92.7861 30.0117 92.7818 31.0344 92.6486 32.0528C92.3263 34.4677 91.3509 36.5904 89.6793 38.378C88.7383 39.3835 87.6167 40.1484 86.2331 40.432C85.6788 40.5437 85.1073 40.5781 84.553 40.3804C83.0877 39.8605 83.1521 38.3393 83.9342 37.6131C84.4756 37.1061 85.1115 36.7237 85.7131 36.3025C87.2171 35.2541 88.0851 33.8145 88.3859 32.027C88.4633 31.5629 88.4976 31.0988 88.5234 30.6304C88.5363 30.4113 88.4761 30.3339 88.2398 30.3339C87.2386 30.3468 86.2417 30.3468 85.2405 30.3339C85.0299 30.3339 84.9526 30.4027 84.9182 30.6004C84.7463 31.5027 84.4928 32.375 84.0115 33.17C83.5517 33.9263 82.963 34.5322 82.0993 34.8329C81.2657 35.1209 80.4192 34.9533 79.9035 34.3818C79.5039 33.9349 79.4137 33.3977 79.4695 32.8262C79.5168 32.3407 79.6758 31.8852 79.9121 31.4555C80.4922 30.3898 81.0122 29.3026 81.4075 28.151C81.8286 26.935 82.7654 26.3592 84.0158 26.183C84.8881 26.0627 85.7604 26.1185 86.5081 26.097L86.5038 26.0884Z" fill="#F7F5ED"/>
<path d="M105.101 32.1344C105.076 33.1743 105.054 34.2099 105.028 35.2497C105.028 35.3013 104.994 35.3658 105.054 35.3958C105.127 35.4345 105.17 35.3701 105.213 35.3271C105.578 34.9704 105.965 34.6353 106.382 34.3431C106.953 33.9434 107.585 33.8188 108.285 33.8919C109.068 33.9735 109.588 34.7599 109.63 35.3443C109.678 35.9502 109.532 36.5045 109.218 37.0201C108.642 37.9569 107.869 38.7046 106.975 39.3319C106.017 40.0023 104.994 40.548 103.829 40.7629C102.618 40.9906 101.543 40.4664 101.075 39.3276C100.77 38.5886 100.658 37.8065 100.624 37.0201C100.525 34.7341 100.602 32.4438 100.581 30.1534C100.577 29.496 100.611 28.8428 100.766 28.1983C101.028 27.1068 101.75 26.4752 102.875 26.4279C103.666 26.3935 104.298 26.7115 104.676 27.4377C104.951 27.9662 105.076 28.5377 105.093 29.1264C105.119 30.1277 105.114 31.1246 105.101 32.1258V32.1344Z" fill="#F7F5ED"/>
<path d="M57.215 40.4621C55.9474 40.4621 54.6797 40.4621 53.4121 40.4621C53.0641 40.4621 52.7203 40.4234 52.3851 40.3375C51.6031 40.1312 51.1218 39.521 51.1476 38.7562C51.169 38.0686 51.7019 37.4842 52.4754 37.351C53.1586 37.235 53.8547 37.2651 54.5465 37.2522C55.1997 37.2436 55.8529 37.2436 56.506 37.2522C56.7337 37.2522 56.8498 37.1963 56.9056 36.9471C57.1162 35.9889 57.3611 35.0349 57.5931 34.081C57.6834 33.7157 57.6834 33.72 57.2967 33.7157C56.1408 33.7071 54.9806 33.7458 53.8246 33.6684C53.3133 33.6341 52.8191 33.5524 52.3508 33.3118C51.3968 32.8219 51.414 31.4254 52.1359 30.8625C52.6473 30.4671 53.236 30.2652 53.859 30.1535C55.363 29.8827 56.867 29.8956 58.358 30.2222C59.1788 30.3984 59.9265 30.7336 60.4808 31.3996C60.9964 32.0227 61.1769 32.7575 61.1984 33.5352C61.2328 34.7083 60.9792 35.847 60.6569 36.9686C60.5796 37.235 60.571 37.2264 60.8546 37.2651C61.1339 37.3038 61.4218 37.2909 61.6969 37.3682C62.4488 37.5788 62.9301 38.1718 62.9043 38.8765C62.8785 39.6242 62.3199 40.2644 61.5593 40.4234C61.3918 40.4578 61.2199 40.475 61.0437 40.475C59.7675 40.475 58.4913 40.475 57.215 40.475V40.4621Z" fill="#F7F5ED"/>
<path d="M72.8778 39.7144C71.593 39.7144 70.3125 39.7273 69.0277 39.7144C68.1081 39.7015 67.1885 39.6371 66.2818 39.4824C65.7189 39.3879 65.2247 39.1386 64.8208 38.7261C64.1849 38.0816 64.172 37.1061 64.7993 36.4444C65.3021 35.9158 65.9467 35.6623 66.6428 35.5162C67.6096 35.3143 68.585 35.224 69.5734 35.2283C71.2836 35.2369 72.9895 35.2025 74.6998 35.2455C75.933 35.2799 77.1663 35.3658 78.3737 35.6537C78.8464 35.7697 79.2675 35.9975 79.6285 36.3241C80.4836 37.0889 80.4406 38.305 79.5425 39.014C79.0613 39.3922 78.5069 39.5511 77.9097 39.6242C77.3682 39.6887 76.8311 39.7187 76.2854 39.7144C75.1509 39.7101 74.0165 39.7144 72.8821 39.7144H72.8778Z" fill="#F7F5ED"/>
<path d="M99.1457 31.245C99.0985 32.8263 99.1028 34.4162 98.8106 35.9803C98.5356 37.4628 97.9426 38.7906 96.8898 39.9035C96.2151 40.6169 95.3858 40.8102 94.4534 40.6383C93.5639 40.475 93.0396 39.4996 93.3232 38.5972C93.4135 38.3136 93.551 38.0472 93.7057 37.7937C94.2471 36.8913 94.492 35.8987 94.6166 34.8674C94.8143 33.2259 94.7198 31.5759 94.7155 29.9301C94.7155 29.2425 94.7327 28.555 94.9346 27.889C95.2053 26.9909 95.8198 26.4538 96.7652 26.4323C97.5988 26.4151 98.2262 26.6643 98.6774 27.5753C98.9696 28.164 99.0211 28.8 99.077 29.4402C99.1286 30.0418 99.1372 30.6391 99.1329 31.2407L99.1457 31.245Z" fill="#F7F5ED"/>
<path d="M72.5383 31.4641C71.4081 31.434 70.2952 31.5114 69.1909 31.4083C68.5506 31.3481 67.906 31.2751 67.3045 31.0344C66.2732 30.6262 65.7704 29.4617 66.2302 28.5378C66.4536 28.0909 66.8232 27.7944 67.2701 27.5882C68.1295 27.1843 69.0448 26.9995 69.9858 26.978C70.9999 26.9522 72.0183 26.935 73.0324 26.9823C74.2442 27.0425 75.4732 27.0296 76.6505 27.3905C77.0888 27.5237 77.5014 27.7042 77.8623 27.9964C79.0225 28.9246 78.4897 30.5274 77.51 30.9957C76.947 31.2665 76.3412 31.3438 75.731 31.404C74.6653 31.5114 73.5911 31.4212 72.5469 31.4598L72.5383 31.4641Z" fill="#F7F5ED"/>
<path d="M41.7069 26.7889C42.9874 26.6943 44.2507 26.8404 45.514 27.0209C46.4293 27.1541 47.3446 27.3217 48.2083 27.6741C48.6337 27.846 49.0333 28.0565 49.3814 28.3616C49.9314 28.8472 50.1849 29.4359 49.9658 30.1621C49.7423 30.8969 49.2224 31.2965 48.4704 31.4125C47.7399 31.5242 47.0094 31.4512 46.2832 31.391C45.1015 31.2922 43.9198 31.1719 42.7424 31.0344C41.7928 30.9226 40.8388 30.8066 39.8978 30.6175C39.5411 30.5445 39.2017 30.4199 38.8966 30.2222C37.7794 29.5046 37.788 27.9835 38.9224 27.283C39.3993 26.9908 39.9322 26.8447 40.4822 26.7932C40.8861 26.7545 41.2986 26.7846 41.7069 26.7846V26.7889Z" fill="#F7F5ED"/>
<path d="M41.4705 36.3584C43.7007 36.3885 45.9094 36.6077 48.0751 37.1534C48.5521 37.2737 48.999 37.4628 49.3556 37.8151C50.2666 38.7261 49.8928 40.1613 48.6466 40.5094C48.3072 40.6039 47.9548 40.6469 47.5981 40.6555C45.9739 40.6813 44.3668 40.5051 42.7554 40.2988C41.8573 40.1871 40.9635 40.0797 40.0783 39.8992C39.5326 39.7875 39.0212 39.6113 38.6259 39.1859C37.7622 38.2491 38.0544 37.0331 39.2532 36.5948C39.6872 36.4358 40.1384 36.3756 40.5939 36.3584C40.8861 36.3498 41.1783 36.3584 41.4662 36.3584H41.4705Z" fill="#F7F5ED"/>
<path d="M42.1539 31.8551C43.9586 31.8895 45.7505 32.0184 47.5037 32.4696C48.0236 32.6028 48.5135 32.8091 48.9174 33.1829C49.3643 33.5955 49.562 34.0982 49.4159 34.6826C49.2655 35.2842 48.8444 35.6408 48.2471 35.8299C47.624 36.0276 46.9966 35.9416 46.3736 35.8944C45.1532 35.7955 43.9286 35.701 42.7125 35.5377C41.9047 35.4303 41.0882 35.3529 40.3018 35.1209C40.0655 35.0522 39.8506 34.9447 39.6315 34.8373C38.6604 34.3732 38.5658 32.8349 39.6229 32.2677C40.1729 31.9712 40.7659 31.8895 41.3718 31.8551C41.6296 31.838 41.8918 31.8551 42.1496 31.8551H42.1539Z" fill="#F7F5ED"/>
</svg>
