<svg width="97" height="57" viewBox="0 0 97 57" fill="none" xmlns="http://www.w3.org/2000/svg">
<path d="M31.5036 8.74329C43.5491 8.74329 53.2373 18.0727 53.2373 29.4886C53.2373 40.9044 43.5491 50.2338 31.5036 50.2338C19.458 50.2338 9.7699 40.9044 9.7699 29.4886C9.7699 18.0727 19.458 8.74329 31.5036 8.74329Z" stroke="#A8DDCC" stroke-width="2"/>
<path d="M8.0961 20.8645C11.8319 10.1376 24.6368 4.65764 36.8437 8.90882C49.0506 13.16 55.6814 25.4087 51.9457 36.1356C48.2099 46.8625 35.4049 52.3424 23.198 48.0912C10.9911 43.84 4.36034 31.5914 8.0961 20.8645Z" stroke="#A8DDCC" stroke-width="2"/>
<rect x="20.7832" y="22.0739" width="75.509" height="15.2624" fill="#53BD9A"/>
<path d="M25.9097 27.7536C25.2013 27.7348 24.3534 27.7951 23.5056 27.7122C23.0609 27.6707 22.6163 27.6104 22.1829 27.4823C20.8565 27.0904 20.6041 25.9373 20.8867 24.9651C21.0751 24.317 21.5763 23.9816 22.1603 23.7367C22.669 23.5219 23.2116 23.4428 23.7543 23.4127C25.2502 23.3298 26.75 23.3147 28.2422 23.4993C30.2431 23.748 31.6335 24.7164 32.1423 26.9246C32.6208 28.9896 32.5304 31.0583 31.9199 33.0931C31.5054 34.4836 30.5257 35.2297 29.1239 35.4859C28.4494 35.6065 27.7712 35.6668 27.0854 35.6517C26.0792 35.6291 25.0694 35.6969 24.0633 35.6065C23.5131 35.5575 22.9705 35.4708 22.458 35.241C21.58 34.8416 21.3313 34.1407 21.5838 33.2778C21.7157 32.8293 22.0887 32.6033 22.5032 32.4563C23.0345 32.2679 23.596 32.2189 24.1537 32.2151C25.4801 32.2001 26.8065 32.2001 28.1291 32.2001C28.2949 32.2001 28.3364 32.1398 28.3552 31.989C28.457 31.1789 28.4419 30.3612 28.4683 29.5473C28.4871 29.0046 28.3891 28.4696 28.3477 27.9307C28.3364 27.7951 28.2723 27.7498 28.1329 27.7498C27.4358 27.7574 26.7387 27.7498 25.8984 27.7498L25.9097 27.7536Z" fill="#F7F5ED"/>
<path d="M75.8571 22.8776C76.8368 22.8813 77.7035 22.8512 78.5702 22.9868C80.1039 23.2205 80.8575 23.9176 81.1778 25.4286C81.3662 26.3179 81.3624 27.2148 81.2456 28.1078C80.963 30.2255 80.1076 32.087 78.6418 33.6546C77.8166 34.5363 76.8331 35.2071 75.6197 35.4558C75.1336 35.5537 74.6325 35.5839 74.1464 35.4106C72.8614 34.9546 72.9179 33.6207 73.6037 32.9838C74.0785 32.5392 74.6362 32.2038 75.1638 31.8345C76.4826 30.9151 77.2438 29.6528 77.5076 28.0852C77.5754 27.6782 77.6056 27.2713 77.6282 26.8605C77.6395 26.6684 77.5867 26.6005 77.3795 26.6005C76.5015 26.6118 75.6273 26.6118 74.7493 26.6005C74.5646 26.6005 74.4968 26.6608 74.4667 26.8342C74.3159 27.6255 74.0936 28.3904 73.6716 29.0875C73.2684 29.7507 72.7521 30.2821 71.9947 30.5458C71.2637 30.7983 70.5214 30.6513 70.0692 30.1502C69.7187 29.7583 69.6396 29.2873 69.6886 28.7861C69.73 28.3603 69.8695 27.9609 70.0767 27.584C70.5854 26.6495 71.0414 25.6962 71.3881 24.6863C71.7573 23.6199 72.5788 23.115 73.6753 22.9605C74.4403 22.855 75.2052 22.9039 75.8609 22.8851L75.8571 22.8776Z" fill="#F7F5ED"/>
<path d="M92.1659 28.1794C92.1433 29.0913 92.1244 29.9994 92.1018 30.9113C92.1018 30.9565 92.0716 31.0131 92.1244 31.0394C92.1885 31.0734 92.2261 31.0168 92.2638 30.9791C92.5841 30.6664 92.9233 30.3725 93.2888 30.1162C93.79 29.7658 94.3439 29.6565 94.9581 29.7206C95.6439 29.7922 96.0998 30.4817 96.1375 30.9942C96.179 31.5255 96.0509 32.0116 95.7758 32.4638C95.2708 33.2853 94.5926 33.9409 93.8088 34.4911C92.9685 35.0789 92.0717 35.5575 91.0505 35.7459C89.9878 35.9456 89.0458 35.4859 88.6351 34.4873C88.3675 33.8392 88.2695 33.1534 88.2394 32.4638C88.1527 30.4591 88.2206 28.4507 88.2017 26.4423C88.198 25.8657 88.2281 25.293 88.3638 24.7277C88.5936 23.7706 89.2267 23.2167 90.2139 23.1752C90.9073 23.1451 91.4612 23.4239 91.7928 24.0608C92.034 24.5242 92.1433 25.0254 92.1583 25.5417C92.1809 26.4196 92.1772 27.2939 92.1659 28.1719V28.1794Z" fill="#F7F5ED"/>
<path d="M50.1732 35.4821C49.0616 35.4821 47.95 35.4821 46.8384 35.4821C46.5332 35.4821 46.2317 35.4482 45.9378 35.3728C45.252 35.192 44.8299 34.6569 44.8525 33.9862C44.8714 33.3832 45.3387 32.8708 46.0169 32.754C46.6161 32.6522 47.2265 32.6786 47.8332 32.6673C48.406 32.6598 48.9787 32.6598 49.5515 32.6673C49.7512 32.6673 49.8529 32.6183 49.9019 32.3997C50.0866 31.5594 50.3013 30.7229 50.5048 29.8864C50.584 29.5661 50.584 29.5698 50.2448 29.5661C49.2312 29.5585 48.2138 29.5924 47.2001 29.5246C46.7517 29.4945 46.3184 29.4229 45.9077 29.2119C45.0711 28.7823 45.0862 27.5576 45.7193 27.064C46.1677 26.7173 46.6839 26.5402 47.2303 26.4422C48.5492 26.2048 49.868 26.2162 51.1756 26.5025C51.8953 26.657 52.551 26.9509 53.0371 27.535C53.4892 28.0814 53.6475 28.7258 53.6663 29.4078C53.6965 30.4365 53.4742 31.4351 53.1915 32.4186C53.1237 32.6522 53.1162 32.6447 53.3649 32.6786C53.6098 32.7125 53.8623 32.7012 54.1035 32.769C54.7629 32.9537 55.1849 33.4737 55.1623 34.0917C55.1397 34.7473 54.6498 35.3088 53.9829 35.4482C53.8359 35.4784 53.6852 35.4934 53.5307 35.4934C52.4115 35.4934 51.2924 35.4934 50.1732 35.4934V35.4821Z" fill="#F7F5ED"/>
<path d="M63.9081 34.8265C62.7814 34.8265 61.6585 34.8378 60.5319 34.8265C59.7255 34.8152 58.9191 34.7587 58.124 34.623C57.6303 34.5401 57.197 34.3216 56.8428 33.9598C56.2851 33.3946 56.2738 32.5392 56.8239 31.9589C57.2648 31.4954 57.8301 31.2731 58.4405 31.145C59.2884 30.9679 60.1437 30.8888 61.0104 30.8925C62.5101 30.9001 64.0061 30.8699 65.5059 30.9076C66.5873 30.9377 67.6688 31.0131 68.7277 31.2656C69.1422 31.3673 69.5114 31.567 69.828 31.8534C70.5778 32.5242 70.5401 33.5905 69.7526 34.2123C69.3306 34.5439 68.8445 34.6833 68.3207 34.7474C67.8459 34.8039 67.3749 34.8303 66.8963 34.8265C65.9015 34.8227 64.9067 34.8265 63.9119 34.8265H63.9081Z" fill="#F7F5ED"/>
<path d="M86.9432 27.3994C86.9017 28.7861 86.9055 30.1803 86.6493 31.552C86.4081 32.852 85.8881 34.0164 84.9649 34.9923C84.3733 35.6178 83.646 35.7874 82.8283 35.6367C82.0483 35.4935 81.5886 34.6381 81.8373 33.8468C81.9164 33.5981 82.037 33.3645 82.1727 33.1421C82.6474 32.3508 82.8622 31.4804 82.9715 30.576C83.1448 29.1366 83.0619 27.6896 83.0582 26.2464C83.0582 25.6435 83.0732 25.0405 83.2504 24.4565C83.4877 23.6689 84.0266 23.1979 84.8556 23.1791C85.5866 23.164 86.1368 23.3825 86.5324 24.1814C86.7887 24.6976 86.8339 25.2553 86.8829 25.8168C86.9281 26.3443 86.9356 26.8681 86.9319 27.3957L86.9432 27.3994Z" fill="#F7F5ED"/>
<path d="M63.6104 27.5916C62.6194 27.5652 61.6434 27.6331 60.675 27.5426C60.1135 27.4899 59.5483 27.4258 59.0207 27.2148C58.1164 26.8568 57.6755 25.8356 58.0787 25.0255C58.2746 24.6336 58.5987 24.3736 58.9906 24.1927C59.7442 23.8385 60.5469 23.6765 61.3721 23.6576C62.2614 23.635 63.1544 23.62 64.0437 23.6614C65.1064 23.7142 66.1841 23.7029 67.2165 24.0194C67.6009 24.1362 67.9626 24.2945 68.2792 24.5507C69.2966 25.3646 68.8293 26.7702 67.9702 27.1809C67.4765 27.4183 66.9452 27.4861 66.4101 27.5389C65.4756 27.6331 64.5336 27.5539 63.6179 27.5879L63.6104 27.5916Z" fill="#F7F5ED"/>
<path d="M36.5737 23.4918C37.6966 23.4089 38.8045 23.537 39.9123 23.6952C40.7149 23.8121 41.5176 23.959 42.275 24.268C42.648 24.4187 42.9985 24.6034 43.3037 24.8709C43.786 25.2967 44.0083 25.813 43.8161 26.4498C43.6202 27.0942 43.1643 27.4446 42.5048 27.5463C41.8642 27.6443 41.2237 27.5802 40.5868 27.5275C39.5506 27.4408 38.5143 27.3353 37.4818 27.2147C36.6491 27.1168 35.8125 27.015 34.9873 26.8492C34.6745 26.7852 34.3769 26.6759 34.1093 26.5025C33.1296 25.8733 33.1371 24.5393 34.1319 23.9251C34.5502 23.6689 35.0174 23.5408 35.4998 23.4955C35.854 23.4616 36.2157 23.488 36.5737 23.488V23.4918Z" fill="#F7F5ED"/>
<path d="M36.3664 31.8835C38.3221 31.9099 40.259 32.1021 42.1581 32.5807C42.5764 32.6862 42.9683 32.852 43.2811 33.161C44.0799 33.9598 43.7521 35.2184 42.6593 35.5236C42.3616 35.6065 42.0526 35.6442 41.7399 35.6517C40.3155 35.6743 38.9062 35.5198 37.4931 35.339C36.7056 35.241 35.9218 35.1468 35.1456 34.9885C34.667 34.8905 34.2186 34.7361 33.8719 34.363C33.1145 33.5415 33.3707 32.4751 34.4221 32.0908C34.8026 31.9514 35.1983 31.8986 35.5977 31.8835C35.854 31.876 36.1102 31.8835 36.3627 31.8835H36.3664Z" fill="#F7F5ED"/>
<path d="M36.9656 27.9345C38.5482 27.9646 40.1196 28.0777 41.657 28.4733C42.1129 28.5902 42.5425 28.771 42.8967 29.0989C43.2886 29.4606 43.462 29.9015 43.3338 30.414C43.202 30.9415 42.8327 31.2543 42.3089 31.4201C41.7625 31.5934 41.2124 31.518 40.666 31.4766C39.5958 31.3899 38.5219 31.307 37.4555 31.1638C36.7471 31.0696 36.0311 31.0018 35.3415 30.7983C35.1343 30.738 34.9459 30.6438 34.7537 30.5496C33.9021 30.1427 33.8192 28.7936 34.7462 28.2962C35.2285 28.0362 35.7485 27.9646 36.2798 27.9345C36.5059 27.9194 36.7358 27.9345 36.9619 27.9345H36.9656Z" fill="#F7F5ED"/>
</svg>
