<svg width="78" height="72" viewBox="0 0 78 72" fill="none" xmlns="http://www.w3.org/2000/svg">
<path d="M42.0114 11.2813C57.4681 11.2813 69.8288 22.998 69.8288 37.249C69.8288 51.5 57.4681 63.2167 42.0114 63.2167C26.5548 63.2167 14.1941 51.5 14.1941 37.249C14.1941 22.998 26.5548 11.2813 42.0114 11.2813Z" fill="#53BD9A" stroke="#53BD9A" stroke-width="3"/>
<path d="M10.7366 26.4239C15.4961 13.0379 31.855 6.12685 47.5293 11.4737C63.2036 16.8205 71.6408 32.19 66.8813 45.5761C62.1219 58.9621 45.7629 65.8732 30.0886 60.5263C14.4143 55.1795 5.97718 39.81 10.7366 26.4239Z" stroke="#31565D" stroke-width="3"/>
<path d="M33.6779 47.9689V44.6369H38.1579V31.5329H34.3779V28.9849C36.4779 28.5929 37.8779 28.0609 39.2219 27.2489H42.2739V44.6369H46.1659V47.9689H33.6779Z" fill="white"/>
</svg>
