<svg width="76" height="72" viewBox="0 0 76 72" fill="none" xmlns="http://www.w3.org/2000/svg">
<path d="M40.8767 11.281C56.0074 11.281 68.1527 22.9722 68.1527 37.2487C68.1527 51.5253 56.0074 63.2164 40.8767 63.2164C25.7461 63.2164 13.6008 51.5253 13.6008 37.2487C13.6008 22.9722 25.7461 11.281 40.8767 11.281Z" fill="#53BD9A" stroke="#53BD9A" stroke-width="3"/>
<path d="M10.4694 26.4321C15.1466 13.0297 31.204 6.14038 46.5583 11.4766C61.9126 16.8128 70.2078 32.1656 65.5305 45.5679C60.8533 58.9703 44.7959 65.8596 29.4417 60.5234C14.0874 55.1872 5.79219 39.8344 10.4694 26.4321Z" stroke="#31565D" stroke-width="3"/>
<path d="M37.9627 48.9758C34.6867 48.9758 32.4747 47.7718 31.0187 46.0918L32.9787 43.4878C34.2107 44.6918 35.6947 45.6438 37.5707 45.6438C39.6987 45.6438 41.1267 44.5798 41.1267 42.7318C41.1267 40.6878 39.9227 39.4278 35.4147 39.4278V36.4598C39.2227 36.4598 40.4547 35.1718 40.4547 33.3238C40.4547 31.6998 39.4467 30.7198 37.6827 30.7198C36.1987 30.7198 34.9947 31.4198 33.7627 32.5678L31.6627 30.0198C33.4547 28.4798 35.4427 27.4998 37.8507 27.4998C41.8547 27.4998 44.5707 29.4598 44.5707 33.0158C44.5707 35.2278 43.3387 36.8798 41.1267 37.7198V37.8598C43.4787 38.5318 45.2707 40.2398 45.2707 42.9838C45.2707 46.7918 41.9387 48.9758 37.9627 48.9758Z" fill="white"/>
</svg>
