<svg width="77" height="72" viewBox="0 0 77 72" fill="none" xmlns="http://www.w3.org/2000/svg">
<path d="M41.6432 11.281C56.7739 11.281 68.9192 22.9722 68.9192 37.2487C68.9192 51.5253 56.7739 63.2164 41.6432 63.2164C26.5126 63.2164 14.3672 51.5253 14.3672 37.2487C14.3672 22.9722 26.5126 11.281 41.6432 11.281Z" fill="#53BD9A" stroke="#53BD9A" stroke-width="3"/>
<path d="M10.9694 26.4321C15.6466 13.0297 31.704 6.14038 47.0583 11.4766C62.4126 16.8128 70.7078 32.1656 66.0305 45.5679C61.3533 58.9703 45.2959 65.8596 29.9417 60.5234C14.5874 55.1872 6.29218 39.8344 10.9694 26.4321Z" stroke="#31565D" stroke-width="3"/>
<path d="M31.9289 45.9689V43.7009C37.3829 38.8139 40.5689 35.0609 40.5689 31.9829C40.5689 29.9849 39.5159 28.7429 37.5989 28.7429C36.1139 28.7429 34.9529 29.6879 33.9269 30.8219L31.7399 28.6619C33.5759 26.6909 35.3849 25.6379 38.1119 25.6379C41.8649 25.6379 44.4029 28.0409 44.4029 31.7669C44.4029 35.4119 41.3789 39.2999 37.7339 42.8639C38.7329 42.7559 40.0559 42.6209 41.0009 42.6209H45.3209V45.9689H31.9289Z" fill="white"/>
</svg>
