<svg width="24" height="26" viewBox="0 0 24 26" fill="none" xmlns="http://www.w3.org/2000/svg">
<path d="M11.7803 4.23512V4.24227H15.7478V9.14091H17.4674V2.66827V2.64852V2.64142H11.7803V4.23028V4.23512Z" fill="white"/>
<path d="M17.4674 16.8661V16.859H15.7478V21.7577H11.7803V23.3464V23.3513V23.3585H17.4674V16.8859V16.8661Z" fill="white"/>
<path d="M14.6364 13.2615L18.5319 16.6686C18.584 16.7153 18.6433 16.7344 18.7003 16.7344C18.8472 16.7344 18.9847 16.6002 18.9847 16.4057L18.9847 14.9542C18.9847 14.7734 19.1129 14.6255 19.2692 14.6255L20.7653 14.6255L22.4249 14.6255L23.2786 14.6255C23.435 14.6255 23.5606 14.4804 23.5606 14.2995L23.5606 11.7004C23.5606 11.5196 23.435 11.3744 23.2786 11.3744L22.4249 11.3744L20.7653 11.3744L19.2692 11.3744C19.1129 11.3744 18.9847 11.2265 18.9847 11.0459L18.9847 9.59424C18.9847 9.39969 18.8472 9.26557 18.7003 9.26557C18.6434 9.26557 18.584 9.28465 18.5319 9.33138L14.6364 12.7385C14.4871 12.8699 14.4871 13.1301 14.6364 13.2615Z" fill="white"/>
<path d="M9.41745 0C9.306 0.00265787 9.18985 0.0192961 9.07357 0.0575163L1.76392 2.4951L1.28972 2.65394L0.730334 2.8402C0.296441 2.98532 0 3.4428 0 3.96586V22.0342C0 22.5573 0.296441 23.0145 0.730334 23.1598L1.28972 23.3461L1.76392 23.5049L9.07357 25.9425C9.18985 25.9806 9.306 26 9.41745 26C10.0741 26 10.6455 25.3837 10.6455 24.5758V23.5049V21.5878V4.41228V2.4951V1.42425C10.6455 0.616307 10.0741 0 9.41745 0ZM7.34039 14.1353V11.8674C7.34039 11.7169 7.44484 11.5991 7.57282 11.5991H8.34342C8.47144 11.5991 8.57332 11.7169 8.57332 11.8674V14.1353C8.57332 14.2832 8.47144 14.4009 8.34342 14.4009H7.57282C7.44484 14.4009 7.34039 14.2831 7.34039 14.1353Z" fill="white"/>
</svg>
