<svg width="24" height="26" viewBox="0 0 24 26" fill="none" xmlns="http://www.w3.org/2000/svg">
<path d="M11.7803 4.23512V4.24227H15.7478V9.14091H17.4674V2.66827V2.64852V2.64142H11.7803V4.23028V4.23512Z" fill="white"/>
<path d="M17.4674 16.8661V16.859H15.7478V21.7577H11.7803V23.3464V23.3513V23.3585H17.4674V16.8859V16.8661Z" fill="white"/>
<path d="M23.4487 12.7384L19.5532 9.33137C19.5011 9.2847 19.4418 9.26556 19.3848 9.26556C19.2379 9.26556 19.1004 9.39973 19.1004 9.59429V11.0458C19.1004 11.2266 18.9722 11.3744 18.8159 11.3744H17.3198H15.6602H14.8065C14.6501 11.3744 14.5245 11.5195 14.5245 11.7004V14.2995C14.5245 14.4804 14.6501 14.6255 14.8065 14.6255H15.6602H17.3198H18.8159C18.9722 14.6255 19.1004 14.7734 19.1004 14.9541V16.4057C19.1004 16.6003 19.2379 16.7344 19.3848 16.7344C19.4417 16.7344 19.5011 16.7153 19.5532 16.6686L23.4487 13.2615C23.598 13.1301 23.598 12.8699 23.4487 12.7384Z" fill="white"/>
<path d="M9.41745 0C9.306 0.00265787 9.18985 0.0192961 9.07357 0.0575163L1.76392 2.4951L1.28972 2.65394L0.730334 2.8402C0.296441 2.98532 0 3.4428 0 3.96586V22.0342C0 22.5573 0.296441 23.0145 0.730334 23.1598L1.28972 23.3461L1.76392 23.5049L9.07357 25.9425C9.18985 25.9806 9.306 26 9.41745 26C10.0741 26 10.6455 25.3837 10.6455 24.5758V23.5049V21.5878V4.41228V2.4951V1.42425C10.6455 0.616307 10.0741 0 9.41745 0ZM7.34039 14.1353V11.8674C7.34039 11.7169 7.44484 11.5991 7.57282 11.5991H8.34342C8.47144 11.5991 8.57332 11.7169 8.57332 11.8674V14.1353C8.57332 14.2832 8.47144 14.4009 8.34342 14.4009H7.57282C7.44484 14.4009 7.34039 14.2831 7.34039 14.1353Z" fill="white"/>
</svg>
