<svg width="16" height="20" viewBox="0 0 16 20" fill="none" xmlns="http://www.w3.org/2000/svg">
<path d="M11.75 10C11.75 10.9946 11.3549 11.9484 10.6517 12.6517C9.94839 13.3549 8.99456 13.75 8 13.75C7.00544 13.75 6.05161 13.3549 5.34835 12.6517C4.64509 11.9484 4.25 10.9946 4.25 10C4.25 9.00544 4.64509 8.05161 5.34835 7.34835C6.05161 6.64509 7.00544 6.25 8 6.25C8.99456 6.25 9.94839 6.64509 10.6517 7.34835C11.3549 8.05161 11.75 9.00544 11.75 10Z" fill="white"/>
<path d="M15.5 17.5V5.625L9.875 0H3C2.33696 0 1.70107 0.263392 1.23223 0.732233C0.763392 1.20107 0.5 1.83696 0.5 2.5V17.5C0.5 18.163 0.763392 18.7989 1.23223 19.2678C1.70107 19.7366 2.33696 20 3 20H13C13.663 20 14.2989 19.7366 14.7678 19.2678C15.2366 18.7989 15.5 18.163 15.5 17.5ZM9.875 3.75C9.875 4.24728 10.0725 4.72419 10.4242 5.07582C10.7758 5.42746 11.2527 5.625 11.75 5.625H14.25V17.1937C14.25 17.1937 13 15 8 15C3 15 1.75 17.1937 1.75 17.1937V2.5C1.75 2.16848 1.8817 1.85054 2.11612 1.61612C2.35054 1.3817 2.66848 1.25 3 1.25H9.875V3.75Z" fill="white"/>
<path d="M15.5 17.5V5.625L9.875 0H3C2.33696 0 1.70107 0.263392 1.23223 0.732233C0.763392 1.20107 0.5 1.83696 0.5 2.5V17.5C0.5 18.163 0.763392 18.7989 1.23223 19.2678C1.70107 19.7366 2.33696 20 3 20H13C13.663 20 14.2989 19.7366 14.7678 19.2678C15.2366 18.7989 15.5 18.163 15.5 17.5ZM9.875 3.75C9.875 4.24728 10.0725 4.72419 10.4242 5.07582C10.7758 5.42746 11.2527 5.625 11.75 5.625H14.25V17.1937C14.25 17.1937 13 15 8 15C3 15 1.75 17.1937 1.75 17.1937V2.5C1.75 2.16848 1.8817 1.85054 2.11612 1.61612C2.35054 1.3817 2.66848 1.25 3 1.25H9.875V3.75Z" fill="white"/>
</svg>
