<svg width="14" height="15" viewBox="0 0 14 15" fill="none" xmlns="http://www.w3.org/2000/svg">
<path d="M10.6282 0.628141C10.799 0.457286 11.076 0.457286 11.2469 0.628141L13.8719 3.25314C14.0427 3.424 14.0427 3.701 13.8719 3.87186L5.12187 12.6219C5.07998 12.6638 5.03001 12.6967 4.975 12.7187L0.599996 14.4687C0.437501 14.5337 0.251906 14.4956 0.128154 14.3719C0.00440115 14.2481 -0.0336937 14.0625 0.0313042 13.9L1.7813 9.52502C1.80331 9.47001 1.83626 9.42004 1.87815 9.37814L10.6282 0.628141ZM9.80623 2.6875L11.8125 4.69378L12.9438 3.5625L10.9375 1.55622L9.80623 2.6875ZM11.1938 5.3125L9.18751 3.30622L3.50001 8.99372V9.25H3.93751C4.17914 9.25 4.37501 9.44588 4.37501 9.6875V10.125H4.81251C5.05414 10.125 5.25001 10.3209 5.25001 10.5625V11H5.50629L11.1938 5.3125ZM2.65271 9.84102L2.56037 9.93336L1.22285 13.2772L4.56665 11.9396L4.65899 11.8473C4.49309 11.7851 4.37501 11.6251 4.37501 11.4375V11H3.93751C3.69589 11 3.50001 10.8041 3.50001 10.5625V10.125H3.06251C2.87491 10.125 2.71488 10.0069 2.65271 9.84102Z" fill="white"/>
</svg>
