<svg width="25" height="25" viewBox="0 0 25 25" fill="none" xmlns="http://www.w3.org/2000/svg">
<path d="M4.00173 13.4107C4.41844 13.2872 4.83 13.1432 5.25185 13.0454C5.64284 12.958 6.04412 12.8705 6.44025 12.8654C8.47749 12.8294 10.5147 12.8036 12.552 12.8088C13.5089 12.8088 14.4555 12.9631 15.3763 13.2718C15.7107 13.385 15.8959 13.6319 15.9577 13.9509C16.0297 14.3522 15.9268 14.7277 15.5513 14.9541C15.2683 15.1238 14.9699 15.1959 14.6355 15.0775C13.9822 14.8512 13.3082 14.7483 12.6189 14.7483C11.0086 14.7431 9.39322 14.7226 7.78298 14.7534C6.94956 14.7689 6.10585 14.6968 5.29816 15.0158C4.68595 15.2576 4.13034 15.5766 3.63646 16.0139C2.80819 16.7444 2.30402 17.6601 2.0468 18.7096C1.86159 19.4504 1.91818 20.2067 2.01593 20.9578C2.07766 21.4465 2.21657 21.8941 2.52524 22.2645C2.8905 22.7018 3.39467 22.9178 3.95028 23.0002C4.26924 23.0465 4.5985 23.0619 4.9226 23.067C6.57401 23.0722 8.22541 23.067 9.87681 23.067C10.3192 23.067 10.6536 23.2471 10.8491 23.6535C11.1269 24.2349 10.6536 24.9911 10.0054 24.9911C8.04535 24.9911 6.08013 25.0168 4.12005 24.9808C3.26091 24.9654 2.45322 24.6567 1.72783 24.1834C0.914994 23.6484 0.529152 22.8201 0.215334 21.9352C-0.0881951 21.0864 -0.000737767 20.2118 0.0609969 19.3578C0.169033 17.8556 0.678344 16.4717 1.6198 15.273C2.21142 14.5219 2.94709 13.9406 3.82167 13.5445C3.87311 13.5239 3.91427 13.4827 3.96057 13.4467C3.976 13.4313 3.99144 13.4158 4.01202 13.4004L4.00173 13.4107Z" fill="white"/>
<path d="M17.0223 23.9789C16.9503 24.0457 16.8577 24.1023 16.8063 24.1795C16.3638 24.8123 15.7671 25.0026 15.0057 24.9306C14.3317 24.8637 13.6424 24.9152 12.9633 24.91C12.9478 24.91 12.9273 24.8946 12.8861 24.874C12.8861 24.1383 12.9376 23.3872 12.8707 22.6413C12.8089 21.9262 13.061 21.4477 13.5703 20.959C15.2166 19.3745 16.8114 17.7437 18.4268 16.1231C18.504 16.046 18.5657 15.9534 18.6171 15.8865C19.7232 16.9926 20.7933 18.0678 21.9251 19.1944C20.6698 20.4291 19.3888 21.6895 18.1078 22.95C17.8249 23.2329 17.5419 23.5107 17.259 23.7937C17.1818 23.8502 17.1046 23.912 17.0223 23.9737V23.9789Z" fill="white"/>
<path d="M22.8099 18.2529C21.8479 17.2909 20.9116 16.3546 19.9804 15.4234C19.9032 15.3463 19.8312 15.2588 19.7438 15.1919C19.5689 15.0582 19.5894 14.9553 19.7438 14.8112C20.1245 14.4511 20.4794 14.0704 20.855 13.7C21.3026 13.2627 22.1463 13.2679 22.5939 13.7154C23.0774 14.1939 23.5559 14.6775 24.0395 15.1559C24.5488 15.6704 24.5745 16.4369 24.0806 16.9565C23.6742 17.3835 23.2524 17.8002 22.8099 18.2478V18.2529Z" fill="white"/>
<path d="M6.58946 1.13578C7.43832 0.48757 8.40549 0.142885 9.44984 0.00912669C9.77909 -0.0320298 10.1238 0.0811504 10.453 0.0502831C11.1938 -0.0217407 11.7958 0.353812 12.4388 0.590462C12.5469 0.631618 12.6652 0.647052 12.7784 0.672774C12.7938 0.688208 12.8092 0.703642 12.8247 0.719075C13.1848 1.04318 13.5449 1.36214 13.8947 1.6914C14.5429 2.3036 14.9442 3.07528 15.2066 3.91384C15.2889 4.17622 15.3867 4.4746 15.3455 4.73183C15.2838 5.0868 15.4947 5.39033 15.433 5.74016C15.3146 6.42953 15.2683 7.13434 14.8773 7.74654C14.8413 7.82885 14.8105 7.90602 14.7745 7.98833C14.5069 8.36903 14.2549 8.76002 13.9719 9.13042C13.5449 9.68089 12.9687 10.0719 12.3514 10.3497C11.8009 10.5966 11.1938 10.7201 10.6074 10.8641C10.3553 10.9259 10.0775 10.9413 9.8151 10.9259C8.64214 10.8641 7.58751 10.4886 6.65634 9.75806C5.93611 9.19216 5.38049 8.50793 5.00494 7.67966C4.74771 7.10861 4.56765 6.51699 4.54193 5.88421L4.4802 5.58582C4.45447 5.27201 4.58309 4.97877 4.59852 4.67524C4.63453 3.93442 4.9998 3.31193 5.22616 2.64314C5.28275 2.58655 5.33934 2.52996 5.39593 2.47337C5.75605 2.06695 6.11102 1.66567 6.47114 1.25925C6.5123 1.2181 6.5586 1.17694 6.59975 1.13578H6.58946ZM13.4935 5.40577C13.4729 5.36461 13.4523 5.3286 13.4317 5.28744C13.4317 5.22056 13.4163 5.15368 13.4266 5.0868C13.4369 4.97362 13.5089 4.84501 13.4729 4.75755C13.1694 3.955 12.8092 3.18332 12.0941 2.64314C11.4048 2.12354 10.6125 1.89718 9.77394 1.93834C8.78619 1.98464 7.93734 2.40134 7.28912 3.17817C6.58432 4.02188 6.34253 4.98906 6.53802 6.05398C6.59975 6.39352 6.73866 6.72277 6.89814 7.03145C7.07305 7.36584 7.25826 7.71567 7.52577 7.96775C8.23572 8.65198 9.09486 9.00696 10.1083 8.95037C11.1115 8.89377 11.9501 8.51308 12.6086 7.74654C12.6498 7.70538 12.6909 7.66423 12.7269 7.62307C13.2671 6.98 13.4523 6.21346 13.5037 5.40062L13.4935 5.40577Z" fill="white"/>
</svg>
