<svg width="20" height="25" viewBox="0 0 20 25" fill="none" xmlns="http://www.w3.org/2000/svg">
<path d="M4.00173 13.4107C4.41844 13.2872 4.83 13.1432 5.25185 13.0454C5.64284 12.958 6.04412 12.8705 6.44025 12.8654C8.47749 12.8294 10.5147 12.8036 12.552 12.8088C13.5089 12.8088 14.4555 12.9631 15.3763 13.2718C15.7107 13.385 15.8959 13.6319 15.9577 13.9509C16.0297 14.3522 15.9268 14.7277 15.5513 14.9541C15.2683 15.1238 14.9699 15.1959 14.6355 15.0775C13.9822 14.8512 13.3082 14.7483 12.6189 14.7483C11.0086 14.7431 9.39322 14.7226 7.78298 14.7534C6.94956 14.7689 6.10585 14.6968 5.29816 15.0158C4.68595 15.2576 4.13034 15.5766 3.63646 16.0139C2.80819 16.7444 2.30402 17.6601 2.0468 18.7096C1.86159 19.4504 1.91818 20.2067 2.01593 20.9578C2.07766 21.4465 2.21657 21.8941 2.52524 22.2645C2.8905 22.7018 3.39467 22.9178 3.95028 23.0002C4.26924 23.0465 4.5985 23.0619 4.9226 23.067C6.57401 23.0722 8.22541 23.067 9.87681 23.067C10.3192 23.067 10.6536 23.2471 10.8491 23.6535C11.1269 24.2349 10.6536 24.9911 10.0054 24.9911C8.04535 24.9911 6.08013 25.0168 4.12005 24.9808C3.26091 24.9654 2.45322 24.6567 1.72783 24.1834C0.914994 23.6484 0.529152 22.8201 0.215334 21.9352C-0.0881951 21.0864 -0.000737767 20.2118 0.0609969 19.3578C0.169033 17.8556 0.678344 16.4717 1.6198 15.273C2.21142 14.5219 2.94709 13.9406 3.82167 13.5445C3.87311 13.5239 3.91427 13.4827 3.96057 13.4467C3.976 13.4313 3.99144 13.4158 4.01202 13.4004L4.00173 13.4107Z" fill="white"/>
<path d="M15.993 13.5931C15.5758 13.4716 15.1637 13.3298 14.7413 13.2336C14.3498 13.1475 13.948 13.0614 13.5513 13.0563C11.5114 13.0209 9.47153 12.9956 7.43163 13.0006C6.47349 13.0006 5.52565 13.1526 4.60358 13.4564C4.26874 13.5678 4.0833 13.8108 4.02148 14.1248C3.94937 14.5197 4.05239 14.8894 4.42843 15.1122C4.71175 15.2793 5.01053 15.3502 5.34536 15.2337C5.99957 15.0109 6.67439 14.9096 7.36466 14.9096C8.97701 14.9046 10.5945 14.8843 12.2069 14.9147C13.0414 14.9299 13.8862 14.859 14.6949 15.1729C15.3079 15.4109 15.8643 15.7249 16.3588 16.1553C17.1881 16.8743 17.693 17.7756 17.9505 18.8086C18.136 19.5377 18.0793 20.2821 17.9814 21.0214C17.9196 21.5024 17.7805 21.943 17.4715 22.3075C17.1057 22.7379 16.6009 22.9506 16.0446 23.0316C15.7252 23.0772 15.3955 23.0924 15.071 23.0975C13.4174 23.1025 11.7638 23.0975 10.1103 23.0975C9.66728 23.0975 9.33245 23.2747 9.1367 23.6747C8.85853 24.2469 9.33245 24.9912 9.98151 24.9912C11.9441 24.9912 13.9119 25.0166 15.8746 24.9811C16.7348 24.9659 17.5436 24.6621 18.2699 24.1963C19.0838 23.6696 19.4702 22.8544 19.7844 21.9835C20.0883 21.148 20.0007 20.2872 19.9389 19.4466C19.8307 17.968 19.3208 16.6059 18.3781 15.4261C17.7857 14.6868 17.0491 14.1146 16.1733 13.7247C16.1218 13.7045 16.0806 13.664 16.0343 13.6285C16.0188 13.6133 16.0033 13.5981 15.9827 13.583L15.993 13.5931Z" fill="white"/>
<path d="M6.58946 1.13578C7.43832 0.48757 8.40549 0.142885 9.44984 0.00912669C9.77909 -0.0320298 10.1238 0.0811504 10.453 0.0502831C11.1938 -0.0217407 11.7958 0.353812 12.4388 0.590462C12.5469 0.631618 12.6652 0.647052 12.7784 0.672774C12.7938 0.688208 12.8092 0.703642 12.8247 0.719075C13.1848 1.04318 13.5449 1.36214 13.8947 1.6914C14.5429 2.3036 14.9442 3.07528 15.2066 3.91384C15.2889 4.17622 15.3867 4.4746 15.3455 4.73183C15.2838 5.0868 15.4947 5.39033 15.433 5.74016C15.3146 6.42953 15.2683 7.13434 14.8773 7.74654C14.8413 7.82885 14.8105 7.90602 14.7745 7.98833C14.5069 8.36903 14.2549 8.76002 13.9719 9.13042C13.5449 9.68089 12.9687 10.0719 12.3514 10.3497C11.8009 10.5966 11.1938 10.7201 10.6074 10.8641C10.3553 10.9259 10.0775 10.9413 9.8151 10.9259C8.64214 10.8641 7.58751 10.4886 6.65634 9.75806C5.93611 9.19216 5.38049 8.50793 5.00494 7.67966C4.74771 7.10861 4.56765 6.51699 4.54193 5.88421L4.4802 5.58582C4.45447 5.27201 4.58309 4.97877 4.59852 4.67524C4.63453 3.93442 4.9998 3.31193 5.22616 2.64314C5.28275 2.58655 5.33934 2.52996 5.39593 2.47337C5.75605 2.06695 6.11102 1.66567 6.47114 1.25925C6.5123 1.2181 6.5586 1.17694 6.59975 1.13578H6.58946ZM13.4935 5.40577C13.4729 5.36461 13.4523 5.3286 13.4317 5.28744C13.4317 5.22056 13.4163 5.15368 13.4266 5.0868C13.4369 4.97362 13.5089 4.84501 13.4729 4.75755C13.1694 3.955 12.8092 3.18332 12.0941 2.64314C11.4048 2.12354 10.6125 1.89718 9.77394 1.93834C8.78619 1.98464 7.93734 2.40134 7.28912 3.17817C6.58432 4.02188 6.34253 4.98906 6.53802 6.05398C6.59975 6.39352 6.73866 6.72277 6.89814 7.03145C7.07305 7.36584 7.25826 7.71567 7.52577 7.96775C8.23572 8.65198 9.09486 9.00696 10.1083 8.95037C11.1115 8.89377 11.9501 8.51308 12.6086 7.74654C12.6498 7.70538 12.6909 7.66423 12.7269 7.62307C13.2671 6.98 13.4523 6.21346 13.5037 5.40062L13.4935 5.40577Z" fill="white"/>
</svg>
