<svg width="184" height="103" viewBox="0 0 184 103" fill="none" xmlns="http://www.w3.org/2000/svg">
<rect width="184" height="103" fill="#53BD9A"/>
<path d="M71.2183 26.9941C86.3385 26.9941 98.5192 38.7076 98.5192 53.0644C98.5192 67.4213 86.3385 79.1348 71.2183 79.1348C56.0981 79.1348 43.9175 67.4213 43.9175 53.0644C43.9175 38.7076 56.0981 26.9941 71.2183 26.9941Z" stroke="#A8DDCC" stroke-width="2"/>
<path d="M41.8475 42.2479C46.5505 28.7436 62.6469 21.8854 77.9468 27.2138C93.2467 32.5421 101.601 47.9155 96.8977 61.4197C92.1947 74.924 76.0982 81.7822 60.7984 76.4539C45.4985 71.1255 37.1445 55.7521 41.8475 42.2479Z" stroke="#A8DDCC" stroke-width="2"/>
<rect x="57.8728" y="43.834" width="94" height="19" fill="#53BD9A"/>
<path d="M64.2548 50.9046C63.3729 50.8812 62.3175 50.9562 61.262 50.853C60.7085 50.8014 60.1549 50.7264 59.6155 50.5669C57.9642 50.079 57.65 48.6436 58.0018 47.4333C58.2363 46.6265 58.8602 46.209 59.5873 45.9041C60.2206 45.6367 60.8961 45.5382 61.5716 45.5006C63.4339 45.3974 65.3009 45.3787 67.1585 45.6085C69.6494 45.9181 71.3804 47.1237 72.0137 49.8726C72.6094 52.4432 72.4969 55.0186 71.7369 57.5517C71.2209 59.2827 70.0012 60.2115 68.2562 60.5305C67.4165 60.6806 66.5722 60.7556 65.7184 60.7369C64.4659 60.7087 63.2087 60.7932 61.9563 60.6806C61.2714 60.6196 60.5959 60.5117 59.9579 60.2256C58.8649 59.7283 58.5553 58.8558 58.8696 57.7816C59.0338 57.2233 59.4982 56.9419 60.0142 56.7589C60.6756 56.5244 61.3746 56.4634 62.0688 56.4587C63.72 56.4399 65.3713 56.4399 67.0178 56.4399C67.2242 56.4399 67.2758 56.3649 67.2993 56.1773C67.4259 55.1687 67.4071 54.1508 67.44 53.1375C67.4634 52.462 67.3415 51.7959 67.2899 51.1251C67.2758 50.9562 67.196 50.8999 67.0225 50.8999C66.1547 50.9093 65.2868 50.8999 64.2407 50.8999L64.2548 50.9046Z" fill="#F7F5ED"/>
<path d="M126.434 44.8345C127.653 44.8392 128.732 44.8017 129.811 44.9706C131.72 45.2614 132.658 46.1292 133.057 48.0103C133.292 49.1174 133.287 50.2338 133.142 51.3456C132.79 53.9819 131.725 56.2992 129.9 58.2507C128.873 59.3483 127.648 60.1833 126.138 60.4929C125.533 60.6149 124.909 60.6524 124.304 60.4366C122.704 59.869 122.775 58.2084 123.628 57.4157C124.219 56.8621 124.914 56.4446 125.57 55.9849C127.212 54.8403 128.16 53.2689 128.488 51.3174C128.573 50.8108 128.61 50.3042 128.638 49.7929C128.652 49.5536 128.587 49.4692 128.329 49.4692C127.236 49.4833 126.147 49.4833 125.054 49.4692C124.825 49.4692 124.74 49.5442 124.703 49.76C124.515 50.7451 124.238 51.6974 123.713 52.5652C123.211 53.3908 122.568 54.0522 121.625 54.3806C120.715 54.6949 119.791 54.512 119.228 53.8881C118.792 53.4002 118.693 52.8138 118.754 52.1899C118.806 51.6599 118.98 51.1626 119.238 50.6935C119.871 49.5302 120.439 48.3434 120.87 47.0862C121.33 45.7586 122.352 45.13 123.717 44.9377C124.67 44.8064 125.622 44.8674 126.438 44.8439L126.434 44.8345Z" fill="#F7F5ED"/>
<path d="M146.736 51.4347C146.708 52.5699 146.684 53.7004 146.656 54.8356C146.656 54.8919 146.619 54.9623 146.684 54.9951C146.764 55.0373 146.811 54.967 146.858 54.9201C147.257 54.5307 147.679 54.1648 148.134 53.8458C148.758 53.4096 149.447 53.2735 150.212 53.3533C151.066 53.4424 151.633 54.3009 151.68 54.9388C151.732 55.6003 151.572 56.2054 151.23 56.7683C150.601 57.7909 149.757 58.6072 148.781 59.292C147.735 60.0238 146.619 60.6196 145.347 60.8541C144.025 61.1027 142.852 60.5304 142.34 59.2873C142.007 58.4805 141.885 57.6267 141.848 56.7683C141.74 54.2727 141.824 51.7724 141.801 49.2721C141.796 48.5544 141.834 47.8414 142.003 47.1378C142.289 45.9463 143.077 45.2567 144.306 45.2051C145.169 45.1676 145.859 45.5147 146.271 46.3075C146.572 46.8844 146.708 47.5083 146.727 48.151C146.755 49.244 146.75 50.3323 146.736 51.4253V51.4347Z" fill="#F7F5ED"/>
<path d="M94.4599 60.5258C93.0761 60.5258 91.6923 60.5258 90.3084 60.5258C89.9285 60.5258 89.5532 60.4836 89.1873 60.3897C88.3335 60.1646 87.8081 59.4985 87.8363 58.6635C87.8597 57.9129 88.4414 57.2749 89.2858 57.1295C90.0317 57.0029 90.7916 57.0357 91.5468 57.0216C92.2599 57.0122 92.9729 57.0122 93.6859 57.0216C93.9345 57.0216 94.0612 56.9606 94.1222 56.6886C94.352 55.6425 94.6194 54.6011 94.8727 53.5597C94.9712 53.161 94.9713 53.1657 94.5491 53.161C93.2872 53.1516 92.0206 53.1938 90.7588 53.1094C90.2005 53.0718 89.6611 52.9827 89.1498 52.72C88.1084 52.1852 88.1271 50.6607 88.9152 50.0462C89.4734 49.6146 90.1161 49.3941 90.7963 49.2722C92.4381 48.9766 94.08 48.9907 95.7077 49.3472C96.6037 49.5395 97.4199 49.9054 98.0251 50.6325C98.588 51.3127 98.785 52.1149 98.8084 52.9639C98.846 54.2446 98.5692 55.4877 98.2174 56.712C98.1329 57.0029 98.1236 56.9935 98.4332 57.0357C98.7381 57.0779 99.0524 57.0638 99.3526 57.1483C100.174 57.3781 100.699 58.0255 100.671 58.7948C100.643 59.611 100.033 60.31 99.2025 60.4836C99.0195 60.5211 98.8319 60.5398 98.6396 60.5398C97.2464 60.5398 95.8532 60.5398 94.4599 60.5398V60.5258Z" fill="#F7F5ED"/>
<path d="M111.558 59.7096C110.156 59.7096 108.758 59.7236 107.355 59.7096C106.351 59.6955 105.348 59.6251 104.358 59.4562C103.743 59.353 103.204 59.081 102.763 58.6306C102.069 57.927 102.055 56.8621 102.739 56.1397C103.288 55.5628 103.992 55.286 104.752 55.1265C105.807 54.906 106.872 54.8075 107.951 54.8122C109.818 54.8216 111.68 54.7841 113.547 54.831C114.894 54.8685 116.24 54.9623 117.558 55.2766C118.074 55.4033 118.534 55.6519 118.928 56.0084C119.861 56.8434 119.815 58.1709 118.834 58.9449C118.309 59.3577 117.704 59.5313 117.052 59.611C116.46 59.6814 115.874 59.7143 115.278 59.7096C114.04 59.7049 112.802 59.7096 111.563 59.7096H111.558Z" fill="#F7F5ED"/>
<path d="M140.234 50.4637C140.183 52.19 140.187 53.9256 139.868 55.6331C139.568 57.2515 138.921 58.701 137.772 59.916C137.035 60.6947 136.13 60.9058 135.112 60.7181C134.141 60.5399 133.568 59.475 133.878 58.4899C133.977 58.1803 134.127 57.8895 134.296 57.6127C134.887 56.6276 135.154 55.544 135.29 54.4182C135.506 52.6262 135.403 50.8249 135.398 49.0283C135.398 48.2777 135.417 47.5272 135.637 46.8001C135.933 45.8196 136.603 45.2333 137.636 45.2098C138.546 45.1911 139.23 45.4631 139.723 46.4576C140.042 47.1003 140.098 47.7945 140.159 48.4935C140.216 49.1502 140.225 49.8023 140.22 50.459L140.234 50.4637Z" fill="#F7F5ED"/>
<path d="M111.188 50.7029C109.954 50.6701 108.739 50.7545 107.534 50.6419C106.835 50.5763 106.131 50.4965 105.474 50.2338C104.349 49.7882 103.8 48.5169 104.302 47.5084C104.546 47.0205 104.949 46.6968 105.437 46.4717C106.375 46.0307 107.374 45.829 108.402 45.8056C109.509 45.7774 110.62 45.7587 111.727 45.8103C113.05 45.8759 114.392 45.8619 115.677 46.2559C116.156 46.4013 116.606 46.5983 117 46.9173C118.267 47.9306 117.685 49.6803 116.615 50.1916C116.001 50.4871 115.339 50.5716 114.673 50.6373C113.51 50.7545 112.337 50.656 111.197 50.6982L111.188 50.7029Z" fill="#F7F5ED"/>
<path d="M77.5303 45.5991C78.9282 45.4959 80.3074 45.6554 81.6865 45.8525C82.6857 45.9979 83.6849 46.1808 84.6277 46.5655C85.0921 46.7531 85.5284 46.983 85.9084 47.316C86.5088 47.8461 86.7856 48.4888 86.5463 49.2815C86.3024 50.0837 85.7348 50.52 84.9139 50.6466C84.1164 50.7686 83.319 50.6888 82.5262 50.6232C81.2362 50.5153 79.9462 50.3839 78.6608 50.2338C77.6241 50.1118 76.5827 49.9852 75.5554 49.7788C75.1661 49.699 74.7955 49.563 74.4624 49.3472C73.2428 48.5638 73.2522 46.9032 74.4906 46.1386C75.0113 45.8196 75.593 45.6601 76.1934 45.6038C76.6344 45.5616 77.0847 45.5945 77.5303 45.5945V45.5991Z" fill="#F7F5ED"/>
<path d="M77.2722 56.0459C79.7068 56.0788 82.118 56.318 84.4822 56.9138C85.0029 57.0451 85.4908 57.2515 85.8801 57.6362C86.8746 58.6307 86.4665 60.1974 85.1061 60.5774C84.7356 60.6806 84.3509 60.7275 83.9615 60.7369C82.1884 60.765 80.4339 60.5727 78.6748 60.3476C77.6944 60.2256 76.7187 60.1083 75.7524 59.9113C75.1566 59.7893 74.5984 59.597 74.1668 59.1326C73.2239 58.11 73.5429 56.7824 74.8517 56.3039C75.3255 56.1304 75.818 56.0647 76.3153 56.0459C76.6342 56.0366 76.9532 56.0459 77.2675 56.0459H77.2722Z" fill="#F7F5ED"/>
<path d="M78.0181 51.1298C79.9883 51.1673 81.9444 51.3081 83.8583 51.8006C84.4259 51.946 84.9607 52.1712 85.4017 52.5793C85.8895 53.0297 86.1053 53.5785 85.9458 54.2165C85.7816 54.8732 85.3219 55.2626 84.6698 55.469C83.9896 55.6847 83.3048 55.5909 82.6246 55.5393C81.2924 55.4314 79.9555 55.3282 78.6279 55.15C77.746 55.0327 76.8547 54.9483 75.9963 54.6949C75.7383 54.6199 75.5037 54.5026 75.2645 54.3853C74.2043 53.8787 74.1011 52.1994 75.2551 51.5801C75.8556 51.2565 76.5029 51.1673 77.1643 51.1298C77.4458 51.1111 77.7319 51.1298 78.0134 51.1298H78.0181Z" fill="#F7F5ED"/>
</svg>
